STARTFONT 2.1
FONT -HP-Dotum-Bold-R-Normal--40-400-75-75-C-200-KSC5636.1989-0
SIZE 40 75 75
FONTBOUNDINGBOX 20 40 0 -6

STARTPROPERTIES 23
FONTNAME_REGISTRY ""
FOUNDRY "HP"
FAMILY_NAME "Dotum"
WEIGHT_NAME "Bold"
SLANT "R"
SETWIDTH_NAME "Normal"
ADD_STYLE_NAME ""
PIXEL_SIZE 40
POINT_SIZE 400
RESOLUTION_X 75
RESOLUTION_Y 75
SPACING "C"
AVERAGE_WIDTH 200
CHARSET_REGISTRY "KSC5636.1989"
CHARSET_ENCODING "0"
COPYRIGHT "Copyright (c) 1994 Samsung Hewlett-Packard Company."
WEIGHT 200
X_HEIGHT 34
QUAD_WIDTH 20
_HP_ASXVERSION "@(#) ASX 3.00 $Revision: 13.9 $ dotB40a"
DEFAULT_CHAR 32
FONT_DESCENT 6
FONT_ASCENT 34
ENDPROPERTIES

CHARS 256

STARTCHAR CODE000
ENCODING 0
SWIDTH 451 0
DWIDTH 20 0
BBX 20 40 0 -6
BITMAP
000000
000000
000000
000000
000000
000000
000000
000000
000000
000000
000000
000000
000000
000000
000000
000000
000000
000000
000000
000000
000000
000000
000000
000000
000000
000000
000000
000000
000000
000000
000000
000000
000000
000000
000000
000000
000000
000000
000000
000000
ENDCHAR

STARTCHAR CODE001
ENCODING 1
SWIDTH 451 0
DWIDTH 20 0
BBX 20 40 0 -6
BITMAP
000000
000000
03FC00
0FFF00
1F0F80
3C03C0
3801C0
7000E0
7000E0
670E60
EF9F70
EF9F70
CF9F30
C70E30
C00030
C00030
C00030
C00030
D801B0
D801B0
DC03B0
DC03B0
CE0730
EF0F70
E7FE70
73FCE0
70F0E0
3801C0
3C03C0
1F0F80
0FFF00
03FC00
000000
000000
000000
000000
000000
000000
000000
000000
ENDCHAR

STARTCHAR CODE002
ENCODING 2
SWIDTH 451 0
DWIDTH 20 0
BBX 20 40 0 -6
BITMAP
000000
000000
01F800
07FE00
0FFF00
1FFF80
3FFFC0
3FFFC0
7FFFE0
7FFFE0
7DFBE0
F8F1F0
FDFBF0
FFFFF0
FFFFF0
FFFFF0
FFFFF0
FFFFF0
FFFFF0
FFFFF0
FFFFF0
FFFFF0
FFFFF0
7FFFE0
7FFFE0
7F9FE0
3FFFC0
3FFFC0
1FFF80
0FFF00
07FE00
01F800
000000
000000
000000
000000
000000
000000
000000
000000
ENDCHAR

STARTCHAR CODE003
ENCODING 3
SWIDTH 451 0
DWIDTH 20 0
BBX 20 40 0 -6
BITMAP
000000
1E0780
3F0FC0
7F9FE0
7F9FE0
FFFFF0
FFFFF0
FFFFF0
FFFFF0
FFFFF0
FFFFF0
FFFFF0
FFFFF0
FFFFF0
FFFFF0
FFFFF0
7FFFE0
7FFFE0
7FFFE0
3FFFC0
3FFFC0
3FFFC0
1FFF80
1FFF80
1FFF80
0FFF00
0FFF00
07FE00
07FE00
03FC00
03FC00
01F800
01F800
00F000
00F000
006000
000000
000000
000000
000000
ENDCHAR

STARTCHAR CODE004
ENCODING 4
SWIDTH 451 0
DWIDTH 20 0
BBX 20 40 0 -6
BITMAP
006000
006000
00F000
00F000
01F800
01F800
03FC00
03FC00
07FE00
07FE00
0FFF00
0FFF00
1FFF80
1FFF80
3FFFC0
3FFFC0
7FFFE0
7FFFE0
FFFFF0
FFFFF0
7FFFE0
7FFFE0
3FFFC0
3FFFC0
1FFF80
1FFF80
0FFF00
0FFF00
07FE00
07FE00
03FC00
03FC00
01F800
01F800
00F000
00F000
006000
006000
000000
000000
ENDCHAR

STARTCHAR CODE005
ENCODING 5
SWIDTH 451 0
DWIDTH 20 0
BBX 20 40 0 -6
BITMAP
000000
000000
00F000
03FC00
03FC00
07FE00
07FE00
07FE00
07FE00
07FE00
07FE00
07FE00
07FE00
07FE00
1FFF80
7FFFE0
7FFFE0
FFFFF0
FFFFF0
FFFFF0
FFFFF0
FFFFF0
FFFFF0
FFFFF0
FFFFF0
FFFFF0
FFFFF0
7F6FE0
3E67C0
1CF380
00F000
00F000
01F800
01F800
03FC00
03FC00
000000
000000
000000
000000
ENDCHAR

STARTCHAR CODE006
ENCODING 6
SWIDTH 451 0
DWIDTH 20 0
BBX 20 40 0 -6
BITMAP
006000
006000
00F000
00F000
01F800
01F800
03FC00
03FC00
07FE00
07FE00
0FFF00
0FFF00
1FFF80
1FFF80
3FFFC0
3FFFC0
7FFFE0
7FFFE0
7FFFE0
FFFFF0
FFFFF0
FFFFF0
FFFFF0
FFFFF0
FFFFF0
FFFFF0
7FFFE0
7FFFE0
3FFFC0
1EF780
01F800
01F800
01F800
03FC00
03FC00
03FC00
000000
000000
000000
000000
ENDCHAR

STARTCHAR CODE007
ENCODING 7
SWIDTH 451 0
DWIDTH 20 0
BBX 20 40 0 -6
BITMAP
000000
000000
000000
000000
000000
000000
000000
000000
000000
000000
01F800
07FE00
0FFF00
1FFF80
3FFFC0
3FFFC0
7FFFE0
7FFFE0
7FFFE0
7FFFE0
7FFFE0
7FFFE0
3FFFC0
3FFFC0
1FFF80
0FFF00
07FE00
01F800
000000
000000
000000
000000
000000
000000
000000
000000
000000
000000
000000
000000
ENDCHAR

STARTCHAR CODE008
ENCODING 8
SWIDTH 451 0
DWIDTH 20 0
BBX 20 40 0 -6
BITMAP
000000
000000
000000
000000
FFFFF0
FFFFF0
FFFFF0
FFFFF0
FFFFF0
FFFFF0
FFFFF0
FF9FF0
FE07F0
FC03F0
FC03F0
F801F0
F801F0
F801F0
F801F0
F801F0
F801F0
F801F0
F801F0
FC03F0
FC03F0
FE07F0
FF9FF0
FFFFF0
FFFFF0
FFFFF0
FFFFF0
FFFFF0
FFFFF0
FFFFF0
000000
000000
000000
000000
000000
000000
ENDCHAR

STARTCHAR CODE009
ENCODING 9
SWIDTH 451 0
DWIDTH 20 0
BBX 20 40 0 -6
BITMAP
000000
000000
000000
000000
000000
000000
000000
000000
000000
000000
03FC00
0FFF00
1FFF80
3F0FC0
3C03C0
7801E0
7801E0
7000E0
7000E0
7000E0
7000E0
7801E0
7801E0
3C03C0
3F0FC0
1FFF80
0FFF00
03FC00
000000
000000
000000
000000
000000
000000
000000
000000
000000
000000
000000
000000
ENDCHAR

STARTCHAR CODE010
ENCODING 10
SWIDTH 451 0
DWIDTH 20 0
BBX 20 40 0 -6
BITMAP
000000
000000
000000
FFFFF0
FFFFF0
FFFFF0
FFFFF0
FFFFF0
FFFFF0
FFFFF0
FF9FF0
FEF7F0
FDFBF0
FFFFF0
FBFDF0
FFFFF0
F7FEF0
F7FEF0
F7FEF0
F7FEF0
F7FEF0
F7FEF0
FFFFF0
FBFDF0
FFFFF0
FDFBF0
FEF7F0
FF9FF0
FFFFF0
FFFFF0
FFFFF0
FFFFF0
FFFFF0
FFFFF0
FFFFF0
000000
000000
000000
000000
000000
ENDCHAR

STARTCHAR CODE011
ENCODING 11
SWIDTH 451 0
DWIDTH 20 0
BBX 20 40 0 -6
BITMAP
000000
000000
000000
000000
000070
0001F0
000FF0
003FF0
003FF0
000FF0
0003F0
0007F0
000F70
000E30
001E00
001C00
003C00
007800
0FF000
3FF000
7FF000
78F000
F07800
E03800
E03800
E03800
E03800
E03800
F07800
78F000
7FF000
3FE000
0F8000
000000
000000
000000
000000
000000
000000
000000
ENDCHAR

STARTCHAR CODE012
ENCODING 12
SWIDTH 451 0
DWIDTH 20 0
BBX 20 40 0 -6
BITMAP
000000
000000
01FC00
07FF00
1FFFC0
1F07C0
3C01E0
3C01E0
3800E0
3800E0
3C01E0
3C01E0
1F07C0
1FFFC0
07FF00
01FC00
007000
007000
007000
007000
007000
FFFFF0
FFFFF0
FFFFF0
007000
007000
007000
007000
007000
007000
007000
007000
007000
007000
007000
007000
007000
000000
000000
000000
ENDCHAR

STARTCHAR CODE013
ENCODING 13
SWIDTH 451 0
DWIDTH 20 0
BBX 20 40 0 -6
BITMAP
000000
000000
018000
01C000
01E000
01F000
01F800
01FC00
01FE00
01FF00
01FF80
01DFC0
01CFE0
01C7E0
01C3F0
01C1F0
01C0F0
01C0F0
01C070
01C0F0
01C0F0
01C1E0
01C1E0
01C3C0
01C380
01C700
01CE00
01CC00
0FC000
3FC000
7FC000
FFC000
FF8000
FF0000
FE0000
780000
000000
000000
000000
000000
ENDCHAR

STARTCHAR CODE014
ENCODING 14
SWIDTH 451 0
DWIDTH 20 0
BBX 20 40 0 -6
BITMAP
000000
000000
0000F0
0007F0
003FF0
01FFF0
07FFF0
07FFF0
07FE70
07F3F0
079FF0
06FFF0
07FFF0
07FFF0
07FF30
07F830
07C030
060030
060030
060030
060030
060030
060030
060070
0601F0
0603F0
0607F0
0E07F0
3E07E0
7E07E0
FE07C0
FE0380
FC0000
FC0000
F80000
700000
000000
000000
000000
000000
ENDCHAR

STARTCHAR CODE015
ENCODING 15
SWIDTH 451 0
DWIDTH 20 0
BBX 20 40 0 -6
BITMAP
006000
006000
006000
006000
006000
606070
7060F0
79F9E0
3FFFC0
1F9F80
0E0700
0C0300
1C0380
1C0380
180180
180180
180180
180180
F801F0
F801F0
180180
180180
180180
180180
1C0380
1C0380
0C0300
0E0700
1F9F80
3FFFC0
79F9E0
7060F0
606070
006000
006000
006000
006000
006000
000000
000000
ENDCHAR

STARTCHAR CODE016
ENCODING 16
SWIDTH 451 0
DWIDTH 20 0
BBX 20 40 0 -6
BITMAP
000000
600000
700000
780000
7C0000
7E0000
7F0000
7F8000
7FC000
7FE000
7FF000
7FF800
7FFC00
7FFE00
7FFF00
7FFF80
7FFFC0
7FFFE0
7FFFF0
7FFFF0
7FFFE0
7FFFC0
7FFF80
7FFF00
7FFE00
7FFC00
7FF800
7FF000
7FE000
7FC000
7F8000
7F0000
7E0000
7C0000
780000
700000
600000
000000
000000
000000
ENDCHAR

STARTCHAR CODE017
ENCODING 17
SWIDTH 451 0
DWIDTH 20 0
BBX 20 40 0 -6
BITMAP
000000
000060
0000E0
0001E0
0003E0
0007E0
000FE0
001FE0
003FE0
007FE0
00FFE0
01FFE0
03FFE0
07FFE0
0FFFE0
1FFFE0
3FFFE0
7FFFE0
FFFFE0
FFFFE0
7FFFE0
3FFFE0
1FFFE0
0FFFE0
07FFE0
03FFE0
01FFE0
00FFE0
007FE0
003FE0
001FE0
000FE0
0007E0
0003E0
0001E0
0000E0
000060
000000
000000
000000
ENDCHAR

STARTCHAR CODE018
ENCODING 18
SWIDTH 451 0
DWIDTH 20 0
BBX 20 40 0 -6
BITMAP
000000
00E000
01F000
03F800
07FC00
0FFE00
1FFF00
1CE700
00E000
00E000
00E000
00E000
00E000
00E000
00E000
00E000
00E000
00E000
00E000
00E000
00E000
00E000
00E000
00E000
00E000
00E000
00E000
00E000
00E000
00E000
1CE700
1FFF00
0FFE00
07FC00
03F800
01F000
00E000
000000
000000
000000
ENDCHAR

STARTCHAR CODE019
ENCODING 19
SWIDTH 451 0
DWIDTH 20 0
BBX 20 40 0 -6
BITMAP
000000
000000
000000
070E00
0F9F00
0F9F00
0F9F00
0F9F00
0F9F00
0F9F00
0F9F00
0F9F00
0F9F00
0F9F00
0F9F00
0F9F00
0F9F00
0F9F00
0F9F00
0F9F00
070E00
070E00
070E00
070E00
000000
000000
070E00
0F9F00
0F9F00
0F9F00
070E00
000000
000000
000000
000000
000000
000000
000000
000000
000000
ENDCHAR

STARTCHAR CODE020
ENCODING 20
SWIDTH 451 0
DWIDTH 20 0
BBX 20 40 0 -6
BITMAP
000000
01FFF0
07FFF0
1FFFF0
3FFFF0
7F78F0
7C78F0
F878F0
F878F0
F078F0
F078F0
F878F0
F878F0
FC78F0
7F78F0
7FF8F0
3FF8F0
1FF8F0
07F8F0
0078F0
0078F0
0078F0
0078F0
0078F0
0078F0
0078F0
0078F0
0078F0
0078F0
0078F0
0078F0
0078F0
0078F0
0078F0
0078F0
0078F0
0078F0
000000
000000
000000
ENDCHAR

STARTCHAR CODE021
ENCODING 21
SWIDTH 451 0
DWIDTH 20 0
BBX 20 40 0 -6
BITMAP
000000
01FC00
07FF00
0FFF80
1F9F80
1E07C0
3C03C0
3C01E0
3801E0
3801E0
3CF000
3FFC00
1FFC00
1F9E00
0FCE00
07FE00
07FE00
07FF00
03FF80
03FFC0
01F3C0
0001E0
7801E0
7800E0
7C01E0
3C01E0
3F03E0
1FCFC0
1FFFC0
07FF80
01FE00
000000
000000
000000
000000
000000
000000
000000
000000
000000
ENDCHAR

STARTCHAR CODE022
ENCODING 22
SWIDTH 451 0
DWIDTH 20 0
BBX 20 40 0 -6
BITMAP
000000
000000
000000
000000
000000
000000
000000
000000
000000
000000
000000
FFFFF0
FFFFF0
FFFFF0
FFFFF0
FFFFF0
FFFFF0
FFFFF0
FFFFF0
FFFFF0
FFFFF0
FFFFF0
FFFFF0
FFFFF0
FFFFF0
FFFFF0
FFFFF0
000000
000000
000000
000000
000000
000000
000000
000000
000000
000000
000000
000000
000000
ENDCHAR

STARTCHAR CODE023
ENCODING 23
SWIDTH 451 0
DWIDTH 20 0
BBX 20 40 0 -6
BITMAP
000000
00E000
01F000
03F800
07FC00
0FFE00
1FFF00
1CE700
00E000
00E000
00E000
00E000
00E000
00E000
00E000
00E000
00E000
00E000
00E000
00E000
00E000
00E000
00E000
00E000
00E000
00E000
00E000
00E000
1CE700
1FFF00
0FFE00
07FC00
03F800
01F000
FFFFF0
FFFFF0
FFFFF0
000000
000000
000000
ENDCHAR

STARTCHAR CODE024
ENCODING 24
SWIDTH 451 0
DWIDTH 20 0
BBX 20 40 0 -6
BITMAP
000000
00E000
01F000
03F800
07FC00
0FFE00
1FFF00
1CE700
00E000
00E000
00E000
00E000
00E000
00E000
00E000
00E000
00E000
00E000
00E000
00E000
00E000
00E000
00E000
00E000
00E000
00E000
00E000
00E000
00E000
00E000
00E000
00E000
00E000
00E000
00E000
00E000
00E000
000000
000000
000000
ENDCHAR

STARTCHAR CODE025
ENCODING 25
SWIDTH 451 0
DWIDTH 20 0
BBX 20 40 0 -6
BITMAP
000000
00E000
00E000
00E000
00E000
00E000
00E000
00E000
00E000
00E000
00E000
00E000
00E000
00E000
00E000
00E000
00E000
00E000
00E000
00E000
00E000
00E000
00E000
00E000
00E000
00E000
00E000
00E000
00E000
00E000
1CE700
1FFF00
0FFE00
07FC00
03F800
01F000
00E000
000000
000000
000000
ENDCHAR

STARTCHAR CODE026
ENCODING 26
SWIDTH 451 0
DWIDTH 20 0
BBX 20 40 0 -6
BITMAP
000000
000000
000000
000000
000000
000000
000000
000000
000000
000000
000000
000000
000600
000700
000780
0003C0
0003E0
FFFFF0
FFFFF0
FFFFF0
0003E0
0003C0
000780
000700
000600
000000
000000
000000
000000
000000
000000
000000
000000
000000
000000
000000
000000
000000
000000
000000
ENDCHAR

STARTCHAR CODE027
ENCODING 27
SWIDTH 451 0
DWIDTH 20 0
BBX 20 40 0 -6
BITMAP
000000
000000
000000
000000
000000
000000
000000
000000
000000
000000
000000
000000
030000
070000
0F0000
1E0000
3E0000
7FFFF0
7FFFF0
7FFFF0
3E0000
1E0000
0F0000
070000
030000
000000
000000
000000
000000
000000
000000
000000
000000
000000
000000
000000
000000
000000
000000
000000
ENDCHAR

STARTCHAR CODE028
ENCODING 28
SWIDTH 451 0
DWIDTH 20 0
BBX 20 40 0 -6
BITMAP
000000
000000
000000
000000
000000
000000
000000
000000
000000
E00000
E00000
E00000
E00000
E00000
E00000
E00000
E00000
E00000
E00000
E00000
E00000
E00000
E00000
E00000
E00000
E00000
E00000
FFFFF0
FFFFF0
FFFFF0
000000
000000
000000
000000
000000
000000
000000
000000
000000
000000
ENDCHAR

STARTCHAR CODE029
ENCODING 29
SWIDTH 451 0
DWIDTH 20 0
BBX 20 40 0 -6
BITMAP
000000
000000
000000
000000
000000
000000
000000
000000
000000
000000
000000
000000
060300
0E0380
1E03C0
3C01E0
7C01F0
FFFFF0
FFFFF0
FFFFF0
7C01F0
3C01E0
1E03C0
0E0380
060300
000000
000000
000000
000000
000000
000000
000000
000000
000000
000000
000000
000000
000000
000000
000000
ENDCHAR

STARTCHAR CODE030
ENCODING 30
SWIDTH 451 0
DWIDTH 20 0
BBX 20 40 0 -6
BITMAP
000000
000000
000000
000000
000000
000000
006000
006000
00F000
00F000
00F000
01F800
01F800
03FC00
03FC00
03FC00
07FE00
07FE00
0FFF00
0FFF00
0FFF00
1FFF80
1FFF80
3FFFC0
3FFFC0
3FFFC0
7FFFE0
7FFFE0
FFFFF0
FFFFF0
000000
000000
000000
000000
000000
000000
000000
000000
000000
000000
ENDCHAR

STARTCHAR CODE031
ENCODING 31
SWIDTH 451 0
DWIDTH 20 0
BBX 20 40 0 -6
BITMAP
000000
000000
000000
000000
000000
000000
FFFFF0
FFFFF0
7FFFE0
7FFFE0
3FFFC0
3FFFC0
3FFFC0
1FFF80
1FFF80
0FFF00
0FFF00
0FFF00
07FE00
07FE00
03FC00
03FC00
03FC00
01F800
01F800
00F000
00F000
00F000
006000
006000
000000
000000
000000
000000
000000
000000
000000
000000
000000
000000
ENDCHAR

STARTCHAR CODE032
ENCODING 32
SWIDTH 451 0
DWIDTH 20 0
BBX 20 40 0 -6
BITMAP
000000
000000
000000
000000
000000
000000
000000
000000
000000
000000
000000
000000
000000
000000
000000
000000
000000
000000
000000
000000
000000
000000
000000
000000
000000
000000
000000
000000
000000
000000
000000
000000
000000
000000
000000
000000
000000
000000
000000
000000
ENDCHAR

STARTCHAR CODE033
ENCODING 33
SWIDTH 451 0
DWIDTH 20 0
BBX 20 40 0 -6
BITMAP
000000
00F000
00F000
00F000
00F000
00F000
00F000
00F000
00F000
00F000
00F000
00F000
00F000
00F000
00F000
00F000
00F000
00F000
00F000
006000
006000
006000
006000
006000
000000
000000
00F000
00F000
00F000
00F000
00F000
000000
000000
000000
000000
000000
000000
000000
000000
000000
ENDCHAR

STARTCHAR CODE034
ENCODING 34
SWIDTH 451 0
DWIDTH 20 0
BBX 20 40 0 -6
BITMAP
000000
079E00
079E00
079E00
079E00
079E00
079E00
079E00
079E00
079E00
079E00
079E00
079E00
000000
000000
000000
000000
000000
000000
000000
000000
000000
000000
000000
000000
000000
000000
000000
000000
000000
000000
000000
000000
000000
000000
000000
000000
000000
000000
000000
ENDCHAR

STARTCHAR CODE035
ENCODING 35
SWIDTH 451 0
DWIDTH 20 0
BBX 20 40 0 -6
BITMAP
000000
000000
000000
03CF00
03CF00
03CF00
03CF00
03CF00
03CF00
03CF00
03CF00
3FFFE0
3FFFE0
3FFFE0
3FFFE0
0F1E00
0F1E00
0F1E00
0F1E00
0F1E00
7FFFC0
7FFFC0
7FFFC0
7FFFC0
1E3C00
1E3C00
1E3C00
1E3C00
1E3C00
1E3C00
1E3C00
000000
000000
000000
000000
000000
000000
000000
000000
000000
ENDCHAR

STARTCHAR CODE036
ENCODING 36
SWIDTH 451 0
DWIDTH 20 0
BBX 20 40 0 -6
BITMAP
00F000
01FC00
07FE00
0FFF00
1FFF80
1FFF80
3EF7C0
3CF3C0
3CF3C0
38F3C0
3CF000
3CF000
3EF000
1FF000
1FF000
0FF800
07FE00
03FF00
00FF80
00FF80
00F7C0
00F3C0
3CF3C0
3CF1C0
3CF1C0
3CF3C0
3EF3C0
1FF7C0
1FFF80
0FFF80
07FF00
01FC00
00F000
00F000
00F000
00F000
000000
000000
000000
000000
ENDCHAR

STARTCHAR CODE037
ENCODING 37
SWIDTH 451 0
DWIDTH 20 0
BBX 20 40 0 -6
BITMAP
000000
000000
000700
3E0700
7F0F00
7F0F00
FF8F00
F79E00
E39E00
E39E00
E3BC00
F7BC00
FFBC00
7F7800
7F7800
3E7000
00F000
00F000
01E7C0
01EFE0
01EFE0
03DFF0
03DEF0
03DC70
079C70
079C70
079EF0
0F1FF0
0F0FE0
0F0FE0
0E07C0
0E0000
000000
000000
000000
000000
000000
000000
000000
000000
ENDCHAR

STARTCHAR CODE038
ENCODING 38
SWIDTH 451 0
DWIDTH 20 0
BBX 20 40 0 -6
BITMAP
000000
01E000
07F800
0FFC00
0FFC00
1F3E00
1E1E00
1E1E00
1C0E00
1E1E00
1E1E00
1F3C00
0F7C00
0FF800
07F000
0FE000
1FE000
3FF1C0
7CF9C0
78F9C0
F07DC0
F03FC0
E01FC0
E01FC0
F00F80
F00F80
F81FC0
7E7FE0
7FFFE0
3FFDF0
1FF0F0
07C000
000000
000000
000000
000000
000000
000000
000000
000000
ENDCHAR

STARTCHAR CODE039
ENCODING 39
SWIDTH 451 0
DWIDTH 20 0
BBX 20 40 0 -6
BITMAP
000000
00F000
00F000
00F000
00F000
00F000
00F000
00F000
00F000
00F000
00F000
00F000
00F000
000000
000000
000000
000000
000000
000000
000000
000000
000000
000000
000000
000000
000000
000000
000000
000000
000000
000000
000000
000000
000000
000000
000000
000000
000000
000000
000000
ENDCHAR

STARTCHAR CODE040
ENCODING 40
SWIDTH 451 0
DWIDTH 20 0
BBX 20 40 0 -6
BITMAP
000000
001C00
003C00
007800
007800
00F000
00F000
00F000
01E000
01E000
01E000
01E000
01E000
03C000
03C000
03C000
03C000
03C000
03C000
03C000
03C000
03C000
03C000
03C000
03C000
03C000
03C000
01E000
01E000
01E000
01E000
01F000
00F000
00F000
00F000
007800
007800
003C00
001C00
000000
ENDCHAR

STARTCHAR CODE041
ENCODING 41
SWIDTH 451 0
DWIDTH 20 0
BBX 20 40 0 -6
BITMAP
000000
01C000
01E000
00F000
00F000
007800
007800
007800
003C00
003C00
003C00
003C00
001E00
001E00
001E00
001E00
001E00
001E00
001E00
001E00
001E00
001E00
001E00
001E00
001E00
001E00
001E00
001E00
003C00
003C00
003C00
003C00
007800
007800
007800
00F000
00F000
01E000
01C000
000000
ENDCHAR

STARTCHAR CODE042
ENCODING 42
SWIDTH 451 0
DWIDTH 20 0
BBX 20 40 0 -6
BITMAP
000000
000000
000000
000000
000000
000000
000000
000000
000000
000000
000000
007000
007000
007000
0E7380
0FFF80
0FFF80
07FF00
01FC00
01FC00
03FE00
07DF00
078F00
070700
000000
000000
000000
000000
000000
000000
000000
000000
000000
000000
000000
000000
000000
000000
000000
000000
ENDCHAR

STARTCHAR CODE043
ENCODING 43
SWIDTH 451 0
DWIDTH 20 0
BBX 20 40 0 -6
BITMAP
000000
000000
000000
000000
000000
000000
000000
000000
000000
000000
00F000
00F000
00F000
00F000
00F000
00F000
00F000
7FFFE0
7FFFE0
7FFFE0
7FFFE0
00F000
00F000
00F000
00F000
00F000
00F000
00F000
000000
000000
000000
000000
000000
000000
000000
000000
000000
000000
000000
000000
ENDCHAR

STARTCHAR CODE044
ENCODING 44
SWIDTH 451 0
DWIDTH 20 0
BBX 20 40 0 -6
BITMAP
000000
000000
000000
000000
000000
000000
000000
000000
000000
000000
000000
000000
000000
000000
000000
000000
000000
000000
000000
000000
000000
000000
000000
000000
000000
000000
000000
03F000
03F000
03F000
03F000
03F000
003000
007000
00F000
03E000
03C000
038000
000000
000000
ENDCHAR

STARTCHAR CODE045
ENCODING 45
SWIDTH 451 0
DWIDTH 20 0
BBX 20 40 0 -6
BITMAP
000000
000000
000000
000000
000000
000000
000000
000000
000000
000000
000000
000000
000000
000000
000000
000000
000000
7FFFE0
7FFFE0
7FFFE0
7FFFE0
000000
000000
000000
000000
000000
000000
000000
000000
000000
000000
000000
000000
000000
000000
000000
000000
000000
000000
000000
ENDCHAR

STARTCHAR CODE046
ENCODING 46
SWIDTH 451 0
DWIDTH 20 0
BBX 20 40 0 -6
BITMAP
000000
000000
000000
000000
000000
000000
000000
000000
000000
000000
000000
000000
000000
000000
000000
000000
000000
000000
000000
000000
000000
000000
000000
000000
000000
000000
000000
03E000
03E000
03E000
03E000
03E000
000000
000000
000000
000000
000000
000000
000000
000000
ENDCHAR

STARTCHAR CODE047
ENCODING 47
SWIDTH 451 0
DWIDTH 20 0
BBX 20 40 0 -6
BITMAP
000000
000E00
000E00
001E00
001E00
001E00
001E00
003C00
003C00
003C00
003C00
007800
007800
007800
007800
00F000
00F000
00F000
00F000
01E000
01E000
01E000
01E000
01C000
03C000
03C000
03C000
03C000
038000
038000
038000
000000
000000
000000
000000
000000
000000
000000
000000
000000
ENDCHAR

STARTCHAR CODE048
ENCODING 48
SWIDTH 451 0
DWIDTH 20 0
BBX 20 40 0 -6
BITMAP
000000
000000
01F800
07FE00
0FFF00
0FFF00
1F0F80
1E0780
3E07C0
3E07C0
3C03C0
3C03C0
7C03E0
7801E0
7801E0
7801E0
7801E0
7801E0
7801E0
7801E0
7801E0
7C03E0
3C03C0
3C03C0
3E07C0
3E07C0
1E0780
1F0F80
0FFF00
0FFF00
07FE00
01F800
000000
000000
000000
000000
000000
000000
000000
000000
ENDCHAR

STARTCHAR CODE049
ENCODING 49
SWIDTH 451 0
DWIDTH 20 0
BBX 20 40 0 -6
BITMAP
000000
000000
003C00
003C00
007C00
00FC00
03FC00
03FC00
03FC00
03FC00
003C00
003C00
003C00
003C00
003C00
003C00
003C00
003C00
003C00
003C00
003C00
003C00
003C00
003C00
003C00
003C00
003C00
003C00
003C00
003C00
003C00
000000
000000
000000
000000
000000
000000
000000
000000
000000
ENDCHAR

STARTCHAR CODE050
ENCODING 50
SWIDTH 451 0
DWIDTH 20 0
BBX 20 40 0 -6
BITMAP
000000
000000
00F800
03FE00
0FFF80
1FFFC0
1FDFC0
3F07E0
3E03E0
3E03E0
3C01E0
3C01E0
0003E0
0003E0
0007C0
000FC0
001F80
003F00
007E00
00FC00
01F800
03F000
07E000
0FC000
1F8000
3F0000
3E0000
3FFFE0
3FFFE0
3FFFE0
3FFFE0
000000
000000
000000
000000
000000
000000
000000
000000
000000
ENDCHAR

STARTCHAR CODE051
ENCODING 51
SWIDTH 451 0
DWIDTH 20 0
BBX 20 40 0 -6
BITMAP
000000
000000
03FC00
0FFF00
1FFF80
1F9F80
3E07C0
3E07C0
3C03C0
3C03C0
3C03C0
3C03C0
0007C0
001F80
01FF80
01FF00
01FF00
01FF80
001FC0
0007C0
0003E0
0001E0
7801E0
7801E0
7801E0
7C03E0
7C03E0
3E07C0
3F9FC0
1FFF80
0FFF00
03FC00
000000
000000
000000
000000
000000
000000
000000
000000
ENDCHAR

STARTCHAR CODE052
ENCODING 52
SWIDTH 451 0
DWIDTH 20 0
BBX 20 40 0 -6
BITMAP
000000
000000
000F00
001F00
003F00
003F00
007F00
00FF00
00FF00
01FF00
03EF00
03CF00
07CF00
0F8F00
0F0F00
1F0F00
1E0F00
3C0F00
7C0F00
780F00
780F00
7FFFE0
7FFFE0
7FFFE0
7FFFE0
000F00
000F00
000F00
000F00
000F00
000F00
000000
000000
000000
000000
000000
000000
000000
000000
000000
ENDCHAR

STARTCHAR CODE053
ENCODING 53
SWIDTH 451 0
DWIDTH 20 0
BBX 20 40 0 -6
BITMAP
000000
000000
000000
3FFF80
3FFF80
3FFF80
3FFF80
3C0000
3C0000
3C0000
3C0000
3C0000
3CFC00
3FFF00
3FFF80
3FFF80
3F8FC0
3E03C0
3C03C0
0001E0
0001E0
0001E0
0001E0
7801E0
7803C0
7C03C0
7C07C0
3F0F80
3FFF80
1FFF00
0FFE00
03F800
000000
000000
000000
000000
000000
000000
000000
000000
ENDCHAR

STARTCHAR CODE054
ENCODING 54
SWIDTH 451 0
DWIDTH 20 0
BBX 20 40 0 -6
BITMAP
000000
000000
01FE00
07FF80
0FFFC0
0FCFC0
1F03E0
1F03E0
3E01E0
3E01E0
3C0000
3C0000
7CFC00
7BFF00
7FFF80
7FFFC0
7F8FC0
7E03E0
7C03E0
7C01E0
7801E0
7801E0
7801E0
7801E0
7C01E0
3C03E0
3E03C0
3E07C0
1F9F80
1FFF80
0FFF00
07FE00
01F800
000000
000000
000000
000000
000000
000000
000000
ENDCHAR

STARTCHAR CODE055
ENCODING 55
SWIDTH 451 0
DWIDTH 20 0
BBX 20 40 0 -6
BITMAP
000000
000000
000000
7FFFE0
7FFFE0
7FFFE0
7FFFE0
0003E0
0007C0
0007C0
000F80
000F00
001F00
001E00
003E00
003C00
007C00
007800
007800
00F800
00F000
00F000
01F000
01E000
01E000
03E000
03E000
03C000
03C000
03C000
03C000
000000
000000
000000
000000
000000
000000
000000
000000
000000
ENDCHAR

STARTCHAR CODE056
ENCODING 56
SWIDTH 451 0
DWIDTH 20 0
BBX 20 40 0 -6
BITMAP
000000
000000
03FC00
0FFF00
1FFF80
1F9F80
3E07C0
3E07C0
3C03C0
3C03C0
3C03C0
3E07C0
3E07C0
1F9F80
1FFF80
0FFF00
1FFF80
3FFFC0
3F0FC0
7C03E0
7C03E0
7801E0
7801E0
7801E0
7801E0
7C03E0
7C03E0
7F0FE0
3FFFC0
3FFFC0
1FFF80
07FE00
000000
000000
000000
000000
000000
000000
000000
000000
ENDCHAR

STARTCHAR CODE057
ENCODING 57
SWIDTH 451 0
DWIDTH 20 0
BBX 20 40 0 -6
BITMAP
000000
000000
01F800
07FE00
0FFF00
1FFF80
1F9F80
3E07C0
3C07C0
7C03C0
7803E0
7801E0
7801E0
7801E0
7801E0
7803E0
7C03E0
7C07E0
3F1FE0
3FFFE0
1FFFE0
0FFFE0
03F9E0
0003E0
0003E0
3C03C0
3C07C0
3E07C0
3F0F80
1FFF80
1FFF00
0FFF00
03FC00
000000
000000
000000
000000
000000
000000
000000
ENDCHAR

STARTCHAR CODE058
ENCODING 58
SWIDTH 451 0
DWIDTH 20 0
BBX 20 40 0 -6
BITMAP
000000
000000
000000
000000
000000
000000
000000
01F800
01F800
01F800
01F800
01F800
000000
000000
000000
000000
000000
000000
000000
000000
000000
000000
000000
01F800
01F800
01F800
01F800
01F800
000000
000000
000000
000000
000000
000000
000000
000000
000000
000000
000000
000000
ENDCHAR

STARTCHAR CODE059
ENCODING 59
SWIDTH 451 0
DWIDTH 20 0
BBX 20 40 0 -6
BITMAP
000000
000000
000000
000000
000000
000000
000000
01F800
01F800
01F800
01F800
01F800
000000
000000
000000
000000
000000
000000
000000
000000
000000
000000
000000
01F800
01F800
01F800
01F800
01F800
003800
003800
007800
00F000
00F000
00E000
000000
000000
000000
000000
000000
000000
ENDCHAR

STARTCHAR CODE060
ENCODING 60
SWIDTH 451 0
DWIDTH 20 0
BBX 20 40 0 -6
BITMAP
000000
000000
000000
000000
000000
000000
000000
000070
0001F0
0007F0
001FF0
007FC0
01FF00
07FC00
1FF000
7FC000
7F0000
7C0000
7F0000
7FC000
1FF000
07FC00
01FF00
007FC0
001FF0
0007F0
0001F0
000070
000000
000000
000000
000000
000000
000000
000000
000000
000000
000000
000000
000000
ENDCHAR

STARTCHAR CODE061
ENCODING 61
SWIDTH 451 0
DWIDTH 20 0
BBX 20 40 0 -6
BITMAP
000000
000000
000000
000000
000000
000000
000000
000000
000000
000000
000000
000000
7FFFE0
7FFFE0
7FFFE0
7FFFE0
000000
000000
000000
000000
7FFFE0
7FFFE0
7FFFE0
7FFFE0
000000
000000
000000
000000
000000
000000
000000
000000
000000
000000
000000
000000
000000
000000
000000
000000
ENDCHAR

STARTCHAR CODE062
ENCODING 62
SWIDTH 451 0
DWIDTH 20 0
BBX 20 40 0 -6
BITMAP
000000
000000
000000
000000
000000
000000
000000
700000
7C0000
7F0000
7FC000
1FF000
07FC00
01FF00
007FC0
001FF0
0007F0
0001F0
0007F0
001FF0
007FC0
01FF00
07FC00
1FF000
7FC000
7F0000
7C0000
700000
000000
000000
000000
000000
000000
000000
000000
000000
000000
000000
000000
000000
ENDCHAR

STARTCHAR CODE063
ENCODING 63
SWIDTH 451 0
DWIDTH 20 0
BBX 20 40 0 -6
BITMAP
000000
000000
01FC00
07FF00
1FFFC0
1FFFC0
3F0FE0
3E03E0
3C03E0
3C01E0
3C01E0
0003E0
0003E0
0007C0
000FC0
001F80
003F00
007E00
007C00
00F800
00F800
00F000
00F000
00F000
000000
000000
00F000
00F000
00F000
00F000
00F000
000000
000000
000000
000000
000000
000000
000000
000000
000000
ENDCHAR

STARTCHAR CODE064
ENCODING 64
SWIDTH 451 0
DWIDTH 20 0
BBX 20 40 0 -6
BITMAP
000000
00FC00
03FF00
0FFF80
1F8FC0
1E03C0
3C01E0
3800E0
78FFE0
71FFF0
73FF70
F7DF70
E78F70
EF0E70
EF0E70
EE0E70
EE0E70
EE1E70
EE1CF0
EE1CE0
FF3DE0
F77DE0
77FFC0
7FFF80
7BFFE0
3C0EE0
3E01E0
1F07C0
1FDFC0
0FFF80
03FE00
00F800
000000
000000
000000
000000
000000
000000
000000
000000
ENDCHAR

STARTCHAR CODE065
ENCODING 65
SWIDTH 451 0
DWIDTH 20 0
BBX 20 40 0 -6
BITMAP
000000
00F000
00F000
00F000
01F800
01F800
01F800
03FC00
03FC00
03FC00
079E00
079E00
079E00
079E00
0F0F00
0F0F00
0F0F00
0F0F00
1E0780
1FFF80
1FFF80
3FFFC0
3FFFC0
3C03C0
7C03E0
7801E0
7801E0
F801F0
F000F0
F000F0
F000F0
000000
000000
000000
000000
000000
000000
000000
000000
000000
ENDCHAR

STARTCHAR CODE066
ENCODING 66
SWIDTH 451 0
DWIDTH 20 0
BBX 20 40 0 -6
BITMAP
000000
7FF800
7FFE00
7FFF00
7FFF80
781F80
7807C0
7807C0
7803C0
7803C0
7803C0
7807C0
780780
781F80
7FFF00
7FFF00
7FFF80
7FFFC0
780FC0
7803E0
7803E0
7801E0
7801E0
7801E0
7803E0
7803E0
780FC0
7FFFC0
7FFF80
7FFF00
7FFC00
000000
000000
000000
000000
000000
000000
000000
000000
000000
ENDCHAR

STARTCHAR CODE067
ENCODING 67
SWIDTH 451 0
DWIDTH 20 0
BBX 20 40 0 -6
BITMAP
000000
01FC00
07FF00
0FFF80
1FFFC0
1F8FE0
3E03E0
3C01F0
7C01F0
7800F0
7800F0
F80000
F00000
F00000
F00000
F00000
F00000
F00000
F00000
F00000
F80000
F800F0
7800F0
7C00F0
7C01F0
3E01E0
3E03E0
1F8FC0
1FFFC0
0FFF80
07FF00
01FC00
000000
000000
000000
000000
000000
000000
000000
000000
ENDCHAR

STARTCHAR CODE068
ENCODING 68
SWIDTH 451 0
DWIDTH 20 0
BBX 20 40 0 -6
BITMAP
000000
7FF800
7FFE00
7FFF00
7FFF80
781F80
7807C0
7803C0
7803C0
7801E0
7801E0
7801E0
7801E0
7801E0
7801E0
7801E0
7801E0
7801E0
7801E0
7801E0
7801E0
7801E0
7801E0
7803E0
7803C0
7807C0
781FC0
7FFF80
7FFF00
7FFE00
7FF800
000000
000000
000000
000000
000000
000000
000000
000000
000000
ENDCHAR

STARTCHAR CODE069
ENCODING 69
SWIDTH 451 0
DWIDTH 20 0
BBX 20 40 0 -6
BITMAP
000000
7FFFE0
7FFFE0
7FFFE0
7FFFE0
780000
780000
780000
780000
780000
780000
780000
780000
780000
7FFFC0
7FFFC0
7FFFC0
7FFFC0
780000
780000
780000
780000
780000
780000
780000
780000
780000
7FFFE0
7FFFE0
7FFFE0
7FFFE0
000000
000000
000000
000000
000000
000000
000000
000000
000000
ENDCHAR

STARTCHAR CODE070
ENCODING 70
SWIDTH 451 0
DWIDTH 20 0
BBX 20 40 0 -6
BITMAP
000000
7FFFE0
7FFFE0
7FFFE0
7FFFE0
780000
780000
780000
780000
780000
780000
780000
780000
780000
7FFFC0
7FFFC0
7FFFC0
7FFFC0
780000
780000
780000
780000
780000
780000
780000
780000
780000
780000
780000
780000
780000
000000
000000
000000
000000
000000
000000
000000
000000
000000
ENDCHAR

STARTCHAR CODE071
ENCODING 71
SWIDTH 451 0
DWIDTH 20 0
BBX 20 40 0 -6
BITMAP
000000
01FC00
07FF00
0FFF80
1FFFC0
3F87C0
3E03E0
7C01E0
7C01E0
7801E0
F801E0
F80000
F00000
F00000
F00000
F03FE0
F03FE0
F03FE0
F03FE0
F001E0
F001E0
F801E0
F801E0
7C01E0
7C01E0
7E03E0
3F0FE0
3FFFE0
1FFFE0
0FFFE0
03F9E0
0001E0
000000
000000
000000
000000
000000
000000
000000
000000
ENDCHAR

STARTCHAR CODE072
ENCODING 72
SWIDTH 451 0
DWIDTH 20 0
BBX 20 40 0 -6
BITMAP
000000
7801E0
7801E0
7801E0
7801E0
7801E0
7801E0
7801E0
7801E0
7801E0
7801E0
7801E0
7801E0
7801E0
7FFFE0
7FFFE0
7FFFE0
7FFFE0
7801E0
7801E0
7801E0
7801E0
7801E0
7801E0
7801E0
7801E0
7801E0
7801E0
7801E0
7801E0
7801E0
000000
000000
000000
000000
000000
000000
000000
000000
000000
ENDCHAR

STARTCHAR CODE073
ENCODING 73
SWIDTH 451 0
DWIDTH 20 0
BBX 20 40 0 -6
BITMAP
000000
00F000
00F000
00F000
00F000
00F000
00F000
00F000
00F000
00F000
00F000
00F000
00F000
00F000
00F000
00F000
00F000
00F000
00F000
00F000
00F000
00F000
00F000
00F000
00F000
00F000
00F000
00F000
00F000
00F000
00F000
000000
000000
000000
000000
000000
000000
000000
000000
000000
ENDCHAR

STARTCHAR CODE074
ENCODING 74
SWIDTH 451 0
DWIDTH 20 0
BBX 20 40 0 -6
BITMAP
000000
000780
000780
000780
000780
000780
000780
000780
000780
000780
000780
000780
000780
000780
000780
000780
000780
000780
000780
000780
000780
000780
000780
3C0780
3C0780
3C0F80
3E0F80
3F1F80
1FFF00
1FFF00
0FFE00
03F800
000000
000000
000000
000000
000000
000000
000000
000000
ENDCHAR

STARTCHAR CODE075
ENCODING 75
SWIDTH 451 0
DWIDTH 20 0
BBX 20 40 0 -6
BITMAP
000000
780000
7801E0
7803E0
7807E0
780FC0
781F80
783F00
787E00
78FC00
79F800
7BF000
7FE000
7FC000
7FC000
7FE000
7FE000
7FF000
7DF800
7CF800
787C00
787E00
783E00
781F00
781F80
780F80
7807C0
7807E0
7803E0
7801E0
7801E0
000000
000000
000000
000000
000000
000000
000000
000000
000000
ENDCHAR

STARTCHAR CODE076
ENCODING 76
SWIDTH 451 0
DWIDTH 20 0
BBX 20 40 0 -6
BITMAP
000000
3C0000
3C0000
3C0000
3C0000
3C0000
3C0000
3C0000
3C0000
3C0000
3C0000
3C0000
3C0000
3C0000
3C0000
3C0000
3C0000
3C0000
3C0000
3C0000
3C0000
3C0000
3C0000
3C0000
3C0000
3C0000
3C0000
3FFFC0
3FFFC0
3FFFC0
3FFFC0
000000
000000
000000
000000
000000
000000
000000
000000
000000
ENDCHAR

STARTCHAR CODE077
ENCODING 77
SWIDTH 451 0
DWIDTH 20 0
BBX 20 40 0 -6
BITMAP
000000
F801F0
F801F0
F801F0
FC03F0
FC03F0
FC03F0
FC03F0
FE07F0
FE07F0
FE07F0
FE07F0
FF0FF0
FF0FF0
FF0FF0
F70EF0
F79EF0
F79EF0
F79EF0
F39CF0
F3FCF0
F3FCF0
F3FCF0
F1F8F0
F1F8F0
F1F8F0
F1F8F0
F0F0F0
F0F0F0
F0F0F0
F000F0
000000
000000
000000
000000
000000
000000
000000
000000
000000
ENDCHAR

STARTCHAR CODE078
ENCODING 78
SWIDTH 451 0
DWIDTH 20 0
BBX 20 40 0 -6
BITMAP
000000
7801E0
7C01E0
7C01E0
7E01E0
7E01E0
7F01E0
7F01E0
7F81E0
7F81E0
7FC1E0
7BC1E0
7BE1E0
79E1E0
79F1E0
78F1E0
78F9E0
7879E0
787DE0
783DE0
783FE0
781FE0
781FE0
780FE0
780FE0
7807E0
7807E0
7803E0
7803E0
7801E0
7801E0
000000
000000
000000
000000
000000
000000
000000
000000
000000
ENDCHAR

STARTCHAR CODE079
ENCODING 79
SWIDTH 451 0
DWIDTH 20 0
BBX 20 40 0 -6
BITMAP
000000
01F800
07FE00
0FFF00
1FFF80
1F9F80
3E07C0
3C03C0
7C03E0
7801E0
7801E0
F801F0
F000F0
F000F0
F000F0
F000F0
F000F0
F000F0
F000F0
F000F0
F000F0
F801F0
7801E0
7801E0
7C03E0
3C03C0
3E07C0
1F9F80
1FFF80
0FFF00
07FE00
01F800
000000
000000
000000
000000
000000
000000
000000
000000
ENDCHAR

STARTCHAR CODE080
ENCODING 80
SWIDTH 451 0
DWIDTH 20 0
BBX 20 40 0 -6
BITMAP
000000
7FF800
7FFE00
7FFF00
7FFF80
781FC0
7807C0
7803E0
7803E0
7801E0
7801E0
7803E0
7803E0
7807C0
781FC0
7FFF80
7FFF00
7FFE00
7FF800
780000
780000
780000
780000
780000
780000
780000
780000
780000
780000
780000
780000
000000
000000
000000
000000
000000
000000
000000
000000
000000
ENDCHAR

STARTCHAR CODE081
ENCODING 81
SWIDTH 451 0
DWIDTH 20 0
BBX 20 40 0 -6
BITMAP
000000
01F800
07FE00
0FFF00
1FFF80
1F9F80
3E07C0
3C03C0
7C03E0
7801E0
7801E0
F801F0
F000F0
F000F0
F000F0
F000F0
F000F0
F000F0
F000F0
F000F0
F000F0
F801F0
7801E0
7839E0
7C7FE0
3C7FC0
3E3FC0
1F9F80
1FFFC0
0FFFE0
07FFE0
01F9C0
000000
000000
000000
000000
000000
000000
000000
000000
ENDCHAR

STARTCHAR CODE082
ENCODING 82
SWIDTH 451 0
DWIDTH 20 0
BBX 20 40 0 -6
BITMAP
000000
7FFC00
7FFF00
7FFF80
7FFF80
780FC0
7807C0
7803C0
7803C0
7803C0
7803C0
7803C0
7807C0
780F80
783F80
7FFF00
7FFE00
7FFF00
7FFF80
781F80
7807C0
7807C0
7803C0
7803C0
7803C0
7803C0
7803C0
7803C0
7803C0
7803C0
7803C0
000000
000000
000000
000000
000000
000000
000000
000000
000000
ENDCHAR

STARTCHAR CODE083
ENCODING 83
SWIDTH 451 0
DWIDTH 20 0
BBX 20 40 0 -6
BITMAP
000000
01FC00
07FF00
0FFF80
1FFFC0
1F8FC0
3E03E0
3E03E0
3C01E0
3C01E0
3E0000
3E0000
1F0000
1FC000
0FF000
07FC00
03FF00
00FF80
003FC0
000FC0
0003E0
0003E0
3C01E0
3C01E0
3C01E0
3E03E0
3E03E0
1F8FC0
1FFFC0
0FFF80
07FF00
01FC00
000000
000000
000000
000000
000000
000000
000000
000000
ENDCHAR

STARTCHAR CODE084
ENCODING 84
SWIDTH 451 0
DWIDTH 20 0
BBX 20 40 0 -6
BITMAP
000000
7FFFE0
7FFFE0
7FFFE0
7FFFE0
00F000
00F000
00F000
00F000
00F000
00F000
00F000
00F000
00F000
00F000
00F000
00F000
00F000
00F000
00F000
00F000
00F000
00F000
00F000
00F000
00F000
00F000
00F000
00F000
00F000
00F000
000000
000000
000000
000000
000000
000000
000000
000000
000000
ENDCHAR

STARTCHAR CODE085
ENCODING 85
SWIDTH 451 0
DWIDTH 20 0
BBX 20 40 0 -6
BITMAP
000000
7801E0
7801E0
7801E0
7801E0
7801E0
7801E0
7801E0
7801E0
7801E0
7801E0
7801E0
7801E0
7801E0
7801E0
7801E0
7801E0
7801E0
7801E0
7801E0
7801E0
7801E0
7801E0
7801E0
7801E0
7C03E0
7C03E0
3F0FC0
3FFFC0
1FFF80
0FFF00
03FC00
000000
000000
000000
000000
000000
000000
000000
000000
ENDCHAR

STARTCHAR CODE086
ENCODING 86
SWIDTH 451 0
DWIDTH 20 0
BBX 20 40 0 -6
BITMAP
000000
7801E0
7801E0
7801E0
7801E0
7C03E0
3C03C0
3C03C0
3C03C0
3E07C0
3E0780
1E0780
1E0780
1F0F80
0F0F00
0F0F00
0F0F00
0F9F00
079E00
079E00
079E00
07FE00
03FC00
03FC00
03FC00
03FC00
01F800
01F800
01F800
00F000
00F000
00F000
000000
000000
000000
000000
000000
000000
000000
000000
ENDCHAR

STARTCHAR CODE087
ENCODING 87
SWIDTH 451 0
DWIDTH 20 0
BBX 20 40 0 -6
BITMAP
000000
F0F0F0
F0F0F0
F0F0F0
F0F0F0
F0F0F0
F0F0F0
F1F8F0
71F8E0
79F9E0
79F9E0
79F9E0
7BFDE0
7BFDE0
7BFDE0
7B9DE0
7B9DC0
3F9FC0
3F9FC0
3F9FC0
3F0FC0
3F0FC0
3F0FC0
3F0FC0
3F0FC0
3F0FC0
1E0780
1E0780
1E0780
1E0780
1E0780
000000
000000
000000
000000
000000
000000
000000
000000
000000
ENDCHAR

STARTCHAR CODE088
ENCODING 88
SWIDTH 451 0
DWIDTH 20 0
BBX 20 40 0 -6
BITMAP
000000
7801E0
7C03E0
3C03C0
3E07C0
1E0780
1F0F80
0F0F00
0F9F00
079E00
07FE00
03FC00
03FC00
01F800
01F800
00F000
01F800
01F800
03FC00
03FC00
07FE00
079E00
0F9F00
0F0F00
1F0F80
1E0780
3E07C0
3C03C0
7C03E0
7801E0
7801E0
000000
000000
000000
000000
000000
000000
000000
000000
000000
ENDCHAR

STARTCHAR CODE089
ENCODING 89
SWIDTH 451 0
DWIDTH 20 0
BBX 20 40 0 -6
BITMAP
000000
F000F0
F801F0
7801E0
7C03E0
3C03C0
3E07C0
1E0780
1F0F80
0F0F00
0F9F00
079E00
07FE00
03FC00
03FC00
01F800
01F800
01F800
00F000
00F000
00F000
00F000
00F000
00F000
00F000
00F000
00F000
00F000
00F000
00F000
00F000
000000
000000
000000
000000
000000
000000
000000
000000
000000
ENDCHAR

STARTCHAR CODE090
ENCODING 90
SWIDTH 451 0
DWIDTH 20 0
BBX 20 40 0 -6
BITMAP
000000
3FFFE0
3FFFE0
3FFFE0
3FFFE0
0003E0
0003C0
0007C0
000780
000F80
001F00
001E00
003E00
003C00
007C00
00F800
00F000
01F000
01E000
03E000
07C000
078000
0F8000
1F0000
1F0000
3E0000
7C0000
7FFFE0
7FFFE0
7FFFE0
7FFFE0
000000
000000
000000
000000
000000
000000
000000
000000
000000
ENDCHAR

STARTCHAR CODE091
ENCODING 91
SWIDTH 451 0
DWIDTH 20 0
BBX 20 40 0 -6
BITMAP
000000
07FE00
07FE00
07FE00
07FE00
078000
078000
078000
078000
078000
078000
078000
078000
078000
078000
078000
078000
078000
078000
078000
078000
078000
078000
078000
078000
078000
078000
078000
078000
078000
078000
078000
078000
078000
078000
07FE00
07FE00
07FE00
07FE00
000000
ENDCHAR

STARTCHAR CODE092
ENCODING 92
SWIDTH 451 0
DWIDTH 20 0
BBX 20 40 0 -6
BITMAP
000000
F0F0F0
F0F0F0
F0F0F0
F0F0F0
F0F0F0
F0F0F0
71F8E0
71F8E0
71F8E0
FFFFF0
FFFFF0
FFFFF0
7BFDE0
7BFDC0
3B9DC0
3B9DC0
3F9FC0
3F9FC0
FFFFF0
FFFFF0
FFFFF0
3F0FC0
3F0FC0
3F0FC0
3F0FC0
1E0780
1E0780
1E0780
1E0780
1E0780
000000
000000
000000
000000
000000
000000
000000
000000
000000
ENDCHAR

STARTCHAR CODE093
ENCODING 93
SWIDTH 451 0
DWIDTH 20 0
BBX 20 40 0 -6
BITMAP
000000
07FE00
07FE00
07FE00
07FE00
001E00
001E00
001E00
001E00
001E00
001E00
001E00
001E00
001E00
001E00
001E00
001E00
001E00
001E00
001E00
001E00
001E00
001E00
001E00
001E00
001E00
001E00
001E00
001E00
001E00
001E00
001E00
001E00
001E00
001E00
07FE00
07FE00
07FE00
07FE00
000000
ENDCHAR

STARTCHAR CODE094
ENCODING 94
SWIDTH 451 0
DWIDTH 20 0
BBX 20 40 0 -6
BITMAP
000000
000000
000000
01F800
01F800
03FC00
03FC00
07FE00
079E00
0F9F00
0F0F00
1F0F80
1E0780
3E07C0
3C03C0
000000
000000
000000
000000
000000
000000
000000
000000
000000
000000
000000
000000
000000
000000
000000
000000
000000
000000
000000
000000
000000
000000
000000
000000
000000
ENDCHAR

STARTCHAR CODE095
ENCODING 95
SWIDTH 451 0
DWIDTH 20 0
BBX 20 40 0 -6
BITMAP
000000
000000
000000
000000
000000
000000
000000
000000
000000
000000
000000
000000
000000
000000
000000
000000
000000
000000
000000
000000
000000
000000
000000
000000
000000
000000
000000
000000
000000
000000
000000
000000
7FFFE0
7FFFE0
7FFFE0
7FFFE0
000000
000000
000000
000000
ENDCHAR

STARTCHAR CODE096
ENCODING 96
SWIDTH 451 0
DWIDTH 20 0
BBX 20 40 0 -6
BITMAP
000000
01F000
01F000
01F800
00F800
007C00
003C00
001C00
000000
000000
000000
000000
000000
000000
000000
000000
000000
000000
000000
000000
000000
000000
000000
000000
000000
000000
000000
000000
000000
000000
000000
000000
000000
000000
000000
000000
000000
000000
000000
000000
ENDCHAR

STARTCHAR CODE097
ENCODING 97
SWIDTH 451 0
DWIDTH 20 0
BBX 20 40 0 -6
BITMAP
000000
000000
000000
000000
000000
000000
000000
000000
000000
03F800
0FFE00
1FFF00
1FBF80
3E0F80
3C07C0
3C07C0
0003C0
007FC0
03FFC0
0FFFC0
1FF3C0
1F83C0
3E03C0
3C03C0
3C07C0
3807C0
3C0FC0
3E3FE0
3FFFF0
1FFDF0
1FF8F0
07E070
000000
000000
000000
000000
000000
000000
000000
000000
ENDCHAR

STARTCHAR CODE098
ENCODING 98
SWIDTH 451 0
DWIDTH 20 0
BBX 20 40 0 -6
BITMAP
000000
780000
780000
780000
780000
780000
780000
780000
780000
79FC00
7FFF00
7FFF80
7FFF80
7F0FC0
7E03C0
7C03C0
7C01E0
7801E0
7801E0
7801E0
7801E0
7801E0
7801E0
7801E0
7C03E0
7C03C0
7E07C0
7F8F80
7FFF80
7FFF00
7BFE00
78F800
000000
000000
000000
000000
000000
000000
000000
000000
ENDCHAR

STARTCHAR CODE099
ENCODING 99
SWIDTH 451 0
DWIDTH 20 0
BBX 20 40 0 -6
BITMAP
000000
000000
000000
000000
000000
000000
000000
000000
000000
01FE00
07FF80
0FFFC0
1FFFC0
1F87E0
3E03E0
3E01E0
3C01E0
3C0000
3C0000
3C0000
3C0000
3C0000
3C0000
3C01E0
3C01E0
3E01E0
3E03E0
1F87C0
1FFFC0
0FFF80
07FF00
01FC00
000000
000000
000000
000000
000000
000000
000000
000000
ENDCHAR

STARTCHAR CODE100
ENCODING 100
SWIDTH 451 0
DWIDTH 20 0
BBX 20 40 0 -6
BITMAP
000000
0001E0
0001E0
0001E0
0001E0
0001E0
0001E0
0001E0
0001E0
01F9E0
07FFE0
0FFFE0
0FFFE0
1F87E0
1E03E0
1E03E0
3C01E0
3C01E0
3C01E0
3C01E0
3C01E0
3C01E0
3C01E0
3C01E0
3E01E0
1E03E0
1F03E0
0F8FE0
0FFFE0
07FFE0
03FFE0
00F9E0
000000
000000
000000
000000
000000
000000
000000
000000
ENDCHAR

STARTCHAR CODE101
ENCODING 101
SWIDTH 451 0
DWIDTH 20 0
BBX 20 40 0 -6
BITMAP
000000
000000
000000
000000
000000
000000
000000
000000
000000
01F800
07FE00
0FFF00
1FFF80
1F9F80
3E07C0
3C03C0
7C03E0
7801E0
7FFFE0
7FFFE0
7FFFE0
7FFFE0
780000
780000
7C01E0
3C01E0
3E03E0
3F8FC0
1FFFC0
0FFF80
07FF00
01FC00
000000
000000
000000
000000
000000
000000
000000
000000
ENDCHAR

STARTCHAR CODE102
ENCODING 102
SWIDTH 451 0
DWIDTH 20 0
BBX 20 40 0 -6
BITMAP
000000
001F00
007F00
007F00
00FF00
00F800
00F000
00F000
00F000
00F000
00F000
1FFF80
1FFF80
1FFF80
1FFF80
00F000
00F000
00F000
00F000
00F000
00F000
00F000
00F000
00F000
00F000
00F000
00F000
00F000
00F000
00F000
00F000
00F000
000000
000000
000000
000000
000000
000000
000000
000000
ENDCHAR

STARTCHAR CODE103
ENCODING 103
SWIDTH 451 0
DWIDTH 20 0
BBX 20 40 0 -6
BITMAP
000000
000000
000000
000000
000000
000000
000000
000000
000000
00FDE0
03FFE0
07FFE0
0FFFE0
0FC7E0
1F03E0
1E01E0
3E01E0
3C01E0
3C01E0
3C01E0
3C01E0
3C01E0
3C01E0
3C01E0
1E01E0
1E03E0
1F0FE0
0FFFE0
0FFFE0
07FFE0
01F9E0
0001E0
1E03E0
1E03E0
1F0FC0
1FFFC0
0FFF80
0FFF80
03FE00
000000
ENDCHAR

STARTCHAR CODE104
ENCODING 104
SWIDTH 451 0
DWIDTH 20 0
BBX 20 40 0 -6
BITMAP
000000
780000
780000
780000
780000
780000
780000
780000
780000
78FC00
7BFF00
7FFF80
7FFF80
7F8FC0
7E07C0
7C03C0
7C03C0
7803C0
7803C0
7803C0
7803C0
7803C0
7803C0
7803C0
7803C0
7803C0
7803C0
7803C0
7803C0
7803C0
7803C0
000000
000000
000000
000000
000000
000000
000000
000000
000000
ENDCHAR

STARTCHAR CODE105
ENCODING 105
SWIDTH 451 0
DWIDTH 20 0
BBX 20 40 0 -6
BITMAP
000000
00F000
00F000
00F000
00F000
00F000
000000
000000
000000
00F000
00F000
00F000
00F000
00F000
00F000
00F000
00F000
00F000
00F000
00F000
00F000
00F000
00F000
00F000
00F000
00F000
00F000
00F000
00F000
00F000
00F000
000000
000000
000000
000000
000000
000000
000000
000000
000000
ENDCHAR

STARTCHAR CODE106
ENCODING 106
SWIDTH 451 0
DWIDTH 20 0
BBX 20 40 0 -6
BITMAP
000000
00F000
00F000
00F000
00F000
00F000
000000
000000
000000
00F000
00F000
00F000
00F000
00F000
00F000
00F000
00F000
00F000
00F000
00F000
00F000
00F000
00F000
00F000
00F000
00F000
00F000
00F000
00F000
00F000
00F000
00F000
00F000
00F000
01F000
0FF000
0FE000
0FE000
0F8000
000000
ENDCHAR

STARTCHAR CODE107
ENCODING 107
SWIDTH 451 0
DWIDTH 20 0
BBX 20 40 0 -6
BITMAP
000000
3C0000
3C0000
3C0000
3C0000
3C0000
3C0000
3C0000
3C0000
3C0F80
3C1F80
3C3F00
3C7E00
3CFC00
3DF800
3FF000
3FE000
3FC000
3FE000
3FF000
3FF000
3CF800
3C7C00
3C7C00
3C3E00
3C1F00
3C1F00
3C0F80
3C07C0
3C07C0
3C03C0
000000
000000
000000
000000
000000
000000
000000
000000
000000
ENDCHAR

STARTCHAR CODE108
ENCODING 108
SWIDTH 451 0
DWIDTH 20 0
BBX 20 40 0 -6
BITMAP
000000
00F000
00F000
00F000
00F000
00F000
00F000
00F000
00F000
00F000
00F000
00F000
00F000
00F000
00F000
00F000
00F000
00F000
00F000
00F000
00F000
00F000
00F000
00F000
00F000
00F000
00F000
00F000
00F000
00F000
00F000
000000
000000
000000
000000
000000
000000
000000
000000
000000
ENDCHAR

STARTCHAR CODE109
ENCODING 109
SWIDTH 451 0
DWIDTH 20 0
BBX 20 40 0 -6
BITMAP
000000
000000
000000
000000
000000
000000
000000
000000
000000
F787C0
FFCFE0
FFFFF0
FFFFF0
F9F9F0
F0F0F0
F0F0F0
F0F0F0
F0F0F0
F0F0F0
F0F0F0
F0F0F0
F0F0F0
F0F0F0
F0F0F0
F0F0F0
F0F0F0
F0F0F0
F0F0F0
F0F0F0
F0F0F0
F0F0F0
000000
000000
000000
000000
000000
000000
000000
000000
000000
ENDCHAR

STARTCHAR CODE110
ENCODING 110
SWIDTH 451 0
DWIDTH 20 0
BBX 20 40 0 -6
BITMAP
000000
000000
000000
000000
000000
000000
000000
000000
000000
3CFC00
3DFF00
3FFF80
3FFF80
3F87C0
3E03C0
3E03C0
3C03C0
3C03C0
3C03C0
3C03C0
3C03C0
3C03C0
3C03C0
3C03C0
3C03C0
3C03C0
3C03C0
3C03C0
3C03C0
3C03C0
3C03C0
000000
000000
000000
000000
000000
000000
000000
000000
000000
ENDCHAR

STARTCHAR CODE111
ENCODING 111
SWIDTH 451 0
DWIDTH 20 0
BBX 20 40 0 -6
BITMAP
000000
000000
000000
000000
000000
000000
000000
000000
000000
01F800
07FE00
0FFF00
1FFF80
1F0F80
3E07C0
3C03C0
7C03E0
7801E0
7801E0
7801E0
7801E0
7801E0
7801E0
7801E0
7C03E0
7C03E0
3E07C0
3F0FC0
1FFF80
0FFF00
07FE00
01F800
000000
000000
000000
000000
000000
000000
000000
000000
ENDCHAR

STARTCHAR CODE112
ENCODING 112
SWIDTH 451 0
DWIDTH 20 0
BBX 20 40 0 -6
BITMAP
000000
000000
000000
000000
000000
000000
000000
000000
000000
3CFC00
3FFF00
3FFF80
3FFF80
3F8FC0
3F07C0
3E03E0
3E03E0
3C01E0
3C01E0
3C01E0
3C01E0
3C01E0
3C01E0
3E03E0
3E03E0
3F07C0
3F8FC0
3FFF80
3FFF80
3FFF00
3CFC00
3C0000
3C0000
3C0000
3C0000
3C0000
3C0000
3C0000
3C0000
000000
ENDCHAR

STARTCHAR CODE113
ENCODING 113
SWIDTH 451 0
DWIDTH 20 0
BBX 20 40 0 -6
BITMAP
000000
000000
000000
000000
000000
000000
000000
000000
000000
01F9E0
07FFE0
0FFFE0
0FFFE0
1F8FE0
1F07E0
3E03E0
3E03E0
3C01E0
3C01E0
3C01E0
3C01E0
3C01E0
3C01E0
3E03E0
3E03E0
1F07E0
1F8FE0
0FFFE0
0FFFE0
07FFE0
01F9E0
0001E0
0001E0
0001E0
0001E0
0001E0
0001E0
0001E0
0001E0
000000
ENDCHAR

STARTCHAR CODE114
ENCODING 114
SWIDTH 451 0
DWIDTH 20 0
BBX 20 40 0 -6
BITMAP
000000
000000
000000
000000
000000
000000
000000
000000
000000
1E3F00
1EFF00
1FFF00
1FFF00
1FE000
1F8000
1F0000
1F0000
1E0000
1E0000
1E0000
1E0000
1E0000
1E0000
1E0000
1E0000
1E0000
1E0000
1E0000
1E0000
1E0000
1E0000
000000
000000
000000
000000
000000
000000
000000
000000
000000
ENDCHAR

STARTCHAR CODE115
ENCODING 115
SWIDTH 451 0
DWIDTH 20 0
BBX 20 40 0 -6
BITMAP
000000
000000
000000
000000
000000
000000
000000
000000
000000
01FC00
07FF00
0FFF80
1FFFC0
1F0FC0
3E03C0
3C03C0
3E0000
3F8000
1FF000
1FFE00
07FF80
01FF80
003FC0
0007C0
3C03C0
3C03C0
3E07C0
3F8FC0
1FFF80
0FFF80
07FF00
01FC00
000000
000000
000000
000000
000000
000000
000000
000000
ENDCHAR

STARTCHAR CODE116
ENCODING 116
SWIDTH 451 0
DWIDTH 20 0
BBX 20 40 0 -6
BITMAP
000000
000000
000000
01E000
01E000
01E000
01E000
01E000
01E000
1FFF80
1FFF80
1FFF80
1FFF80
01E000
01E000
01E000
01E000
01E000
01E000
01E000
01E000
01E000
01E000
01E000
01E000
01E000
01F000
01FF00
00FF00
00FF00
003F00
000000
000000
000000
000000
000000
000000
000000
000000
000000
ENDCHAR

STARTCHAR CODE117
ENCODING 117
SWIDTH 451 0
DWIDTH 20 0
BBX 20 40 0 -6
BITMAP
000000
000000
000000
000000
000000
000000
000000
000000
000000
3C03C0
3C03C0
3C03C0
3C03C0
3C03C0
3C03C0
3C03C0
3C03C0
3C03C0
3C03C0
3C03C0
3C03C0
3C03C0
3C03C0
3C03C0
3C03C0
3C07C0
3C07C0
3E0FC0
1FFFC0
1FFFC0
0FFFC0
03F3C0
000000
000000
000000
000000
000000
000000
000000
000000
ENDCHAR

STARTCHAR CODE118
ENCODING 118
SWIDTH 451 0
DWIDTH 20 0
BBX 20 40 0 -6
BITMAP
000000
000000
000000
000000
000000
000000
000000
000000
000000
7801E0
7801E0
7C03E0
3C03C0
3C03C0
3E07C0
1E0780
1E0780
1F0F80
0F0F00
0F0F00
0F9F00
079E00
079E00
07FE00
03FC00
03FC00
03FC00
01F800
01F800
00F000
00F000
000000
000000
000000
000000
000000
000000
000000
000000
000000
ENDCHAR

STARTCHAR CODE119
ENCODING 119
SWIDTH 451 0
DWIDTH 20 0
BBX 20 40 0 -6
BITMAP
000000
000000
000000
000000
000000
000000
000000
000000
000000
F0F0F0
F0F0F0
F0F0F0
F0F0F0
F9F9F0
79F9E0
79F9E0
79F9E0
79F9E0
39FFC0
3FFFC0
3FFFC0
3FFFC0
3F9FC0
1F9F80
1F9F80
1F9F80
1F9F80
0F0F00
0F0F00
0F0F00
0F0F00
000000
000000
000000
000000
000000
000000
000000
000000
000000
ENDCHAR

STARTCHAR CODE120
ENCODING 120
SWIDTH 451 0
DWIDTH 20 0
BBX 20 40 0 -6
BITMAP
000000
000000
000000
000000
000000
000000
000000
000000
000000
3C03C0
3E07C0
3E07C0
1F0F80
0F9F00
0F9F00
07FE00
03FC00
03FC00
01F800
00F000
01F800
01F800
03FC00
07FE00
07FE00
0F9F00
1F0F80
1F0F80
3E07C0
3C03C0
3C03C0
000000
000000
000000
000000
000000
000000
000000
000000
000000
ENDCHAR

STARTCHAR CODE121
ENCODING 121
SWIDTH 451 0
DWIDTH 20 0
BBX 20 40 0 -6
BITMAP
000000
000000
000000
000000
000000
000000
000000
000000
000000
7801E0
7801E0
7C01E0
3C03C0
3C03C0
1E03C0
1E0780
1E0780
0F0780
0F0F00
0F0F00
078F00
079E00
079E00
03DE00
03FC00
03FC00
01FC00
01FC00
01F800
00F800
00F800
00F000
01F000
01F000
07E000
1FE000
1FC000
1F8000
1F0000
000000
ENDCHAR

STARTCHAR CODE122
ENCODING 122
SWIDTH 451 0
DWIDTH 20 0
BBX 20 40 0 -6
BITMAP
000000
000000
000000
000000
000000
000000
000000
000000
000000
1FFFC0
1FFFC0
1FFFC0
1FFFC0
000F80
000F00
001E00
003E00
003C00
007800
00F800
00F000
01E000
03E000
07C000
078000
0F8000
1F0000
1FFFC0
3FFFC0
3FFFC0
3FFFC0
000000
000000
000000
000000
000000
000000
000000
000000
000000
ENDCHAR

STARTCHAR CODE123
ENCODING 123
SWIDTH 451 0
DWIDTH 20 0
BBX 20 40 0 -6
BITMAP
000000
001E00
007E00
007E00
00F800
00F000
00F000
00F000
00F000
00F000
00F000
00F000
00F000
00F000
00F000
00F000
00F000
01F000
07F000
07E000
07E000
07F000
01F000
00F000
00F000
00F000
00F000
00F000
00F000
00F000
00F000
00F000
00F000
00F000
00F000
00F800
007E00
007E00
001E00
000000
ENDCHAR

STARTCHAR CODE124
ENCODING 124
SWIDTH 451 0
DWIDTH 20 0
BBX 20 40 0 -6
BITMAP
000000
000000
00F000
00F000
00F000
00F000
00F000
00F000
00F000
00F000
00F000
00F000
00F000
00F000
00F000
00F000
00F000
00F000
00F000
00F000
00F000
00F000
00F000
00F000
00F000
00F000
00F000
00F000
00F000
00F000
00F000
00F000
000000
000000
000000
000000
000000
000000
000000
000000
ENDCHAR

STARTCHAR CODE125
ENCODING 125
SWIDTH 451 0
DWIDTH 20 0
BBX 20 40 0 -6
BITMAP
000000
03C000
03F000
03F000
00F800
007800
007800
007800
007800
007800
007800
007800
007800
007800
007800
007800
007800
007C00
007F00
003F00
003F00
007F00
007C00
007800
007800
007800
007800
007800
007800
007800
007800
007800
007800
007800
007800
00F800
03F000
03F000
03C000
000000
ENDCHAR

STARTCHAR CODE126
ENCODING 126
SWIDTH 451 0
DWIDTH 20 0
BBX 20 40 0 -6
BITMAP
000000
000000
000000
000000
000000
000000
000000
000000
000000
000000
000000
000000
000000
000000
078000
1FE0C0
3FF0E0
7FF9F0
7CFFF0
387FE0
183FC0
000F00
000000
000000
000000
000000
000000
000000
000000
000000
000000
000000
000000
000000
000000
000000
000000
000000
000000
000000
ENDCHAR

STARTCHAR CODE127
ENCODING 127
SWIDTH 451 0
DWIDTH 20 0
BBX 20 40 0 -6
BITMAP
000000
000000
000000
000000
000000
000000
000000
000000
000000
000000
000000
000000
000000
000000
000000
000000
000000
000000
000000
000000
000000
000000
000000
000000
000000
000000
000000
000000
000000
000000
000000
000000
000000
000000
000000
000000
000000
000000
000000
000000
ENDCHAR

STARTCHAR CODE128
ENCODING 128
SWIDTH 451 0
DWIDTH 20 0
BBX 20 40 0 -6
BITMAP
00F800
03FE00
0FFF80
1FFFC0
1F8FE0
3E03E0
3C01F0
7C01F0
7800F0
7800F0
F80000
F00000
F00000
F00000
F00000
F00000
F00000
F00000
F00000
F00000
F800F0
7800F0
7800F0
7C01F0
3C01F0
3E03E0
1F87E0
1FFFC0
0FFFC0
07FF80
01FE00
01F000
07F800
07FC00
073E00
001E00
00FE00
03FC00
03F800
000000
ENDCHAR

STARTCHAR CODE129
ENCODING 129
SWIDTH 451 0
DWIDTH 20 0
BBX 20 40 0 -6
BITMAP
000000
000000
039C00
039C00
039C00
039C00
039C00
000000
000000
3C03C0
3C03C0
3C03C0
3C03C0
3C03C0
3C03C0
3C03C0
3C03C0
3C03C0
3C03C0
3C03C0
3C03C0
3C03C0
3C03C0
3C03C0
3C03C0
3C03C0
3E07C0
3F1FC0
1FFFC0
1FFFC0
0FFFC0
03F3C0
000000
000000
000000
000000
000000
000000
000000
000000
ENDCHAR

STARTCHAR CODE130
ENCODING 130
SWIDTH 451 0
DWIDTH 20 0
BBX 20 40 0 -6
BITMAP
000000
003C00
007C00
007C00
00F800
00F000
01E000
01C000
000000
01F800
07FE00
0FFF00
1FFF80
1F9F80
3E07C0
3C03C0
7C03E0
7801E0
7FFFE0
7FFFE0
7FFFE0
7FFFE0
780000
780000
7C01E0
3C01E0
3E03E0
1F8FE0
1FFFC0
0FFF80
07FF00
01FC00
000000
000000
000000
000000
000000
000000
000000
000000
ENDCHAR

STARTCHAR CODE131
ENCODING 131
SWIDTH 451 0
DWIDTH 20 0
BBX 20 40 0 -6
BITMAP
000000
00F000
01F800
01F800
03FC00
03FC00
039C00
000000
000000
03F800
0FFE00
1FFF00
1FBF80
3E0F80
3C07C0
3C07C0
0007C0
003FC0
01FFC0
07FFC0
1FFBC0
1FC3C0
3F03C0
3C03C0
3C07C0
3807C0
3C0FC0
3E3FE0
3FFFF0
1FFDF0
1FF8F0
07E070
000000
000000
000000
000000
000000
000000
000000
000000
ENDCHAR

STARTCHAR CODE132
ENCODING 132
SWIDTH 451 0
DWIDTH 20 0
BBX 20 40 0 -6
BITMAP
000000
000000
039C00
039C00
039C00
039C00
039C00
000000
000000
03F800
0FFE00
1FFF00
1FBF80
3E0F80
3C07C0
3C07C0
0007C0
003FC0
01FFC0
07FFC0
1FFBC0
1FC3C0
3F03C0
3C03C0
3C07C0
3807C0
3C0FC0
3E3FE0
3FFFF0
1FFDF0
1FF8F0
07E070
000000
000000
000000
000000
000000
000000
000000
000000
ENDCHAR

STARTCHAR CODE133
ENCODING 133
SWIDTH 451 0
DWIDTH 20 0
BBX 20 40 0 -6
BITMAP
000000
07C000
07E000
03E000
01F000
00F000
007000
000000
000000
03F800
0FFE00
1FFF00
1FBF80
3E0F80
3C07C0
3C07C0
0007C0
003FC0
01FFC0
07FFC0
1FFBC0
1FC3C0
3F03C0
3C03C0
3C07C0
3807C0
3C0FC0
3E3FE0
3FFFF0
1FFDF0
1FF8F0
07E070
000000
000000
000000
000000
000000
000000
000000
000000
ENDCHAR

STARTCHAR CODE134
ENCODING 134
SWIDTH 451 0
DWIDTH 20 0
BBX 20 40 0 -6
BITMAP
000000
00F000
01F800
01F800
01F800
01F800
00F000
000000
000000
03F800
0FFE00
1FFF00
1FBF80
3E0F80
3C07C0
3C07C0
0007C0
003FC0
01FFC0
07FFC0
1FFBC0
1FC3C0
3F03C0
3C03C0
3C07C0
3807C0
3C0FC0
3E3FE0
3FFFF0
1FFDF0
1FF8F0
07E070
000000
000000
000000
000000
000000
000000
000000
000000
ENDCHAR

STARTCHAR CODE135
ENCODING 135
SWIDTH 451 0
DWIDTH 20 0
BBX 20 40 0 -6
BITMAP
000000
000000
000000
000000
000000
000000
000000
000000
000000
01FC00
07FF00
0FFF80
0FFFC0
1F8FE0
1F03E0
3E01E0
3E01E0
3C0000
3C0000
3C0000
3C0000
3C0000
3C0000
3E01E0
3E01E0
1F03E0
1F8FE0
0FFFC0
0FFF80
07FF00
01FC00
01F000
03F800
03FC00
003C00
003C00
00FC00
03F800
03F000
000000
ENDCHAR

STARTCHAR CODE136
ENCODING 136
SWIDTH 451 0
DWIDTH 20 0
BBX 20 40 0 -6
BITMAP
000000
00F000
01F800
01F800
03FC00
03FC00
039C00
000000
000000
01F800
07FE00
0FFF00
1FFF80
1F9F80
3E07C0
3C03C0
7C03E0
7801E0
7FFFE0
7FFFE0
7FFFE0
7FFFE0
780000
780000
7C01E0
3C01E0
3E03E0
1F8FE0
1FFFC0
0FFF80
07FF00
01FC00
000000
000000
000000
000000
000000
000000
000000
000000
ENDCHAR

STARTCHAR CODE137
ENCODING 137
SWIDTH 451 0
DWIDTH 20 0
BBX 20 40 0 -6
BITMAP
000000
000000
039C00
039C00
039C00
039C00
039C00
000000
000000
01F800
07FE00
0FFF00
1FFF80
1F9F80
3E07C0
3C03C0
7C03E0
7801E0
7FFFE0
7FFFE0
7FFFE0
7FFFE0
780000
780000
7C01E0
3C01E0
3E03E0
1F8FE0
1FFFC0
0FFF80
07FF00
01FC00
000000
000000
000000
000000
000000
000000
000000
000000
ENDCHAR

STARTCHAR CODE138
ENCODING 138
SWIDTH 451 0
DWIDTH 20 0
BBX 20 40 0 -6
BITMAP
000000
07C000
07E000
03E000
01F000
00F000
007000
000000
000000
01F800
07FE00
0FFF00
1FFF80
1F9F80
3E07C0
3C03C0
7C03E0
7801E0
7FFFE0
7FFFE0
7FFFE0
7FFFE0
780000
780000
7C01E0
3C01E0
3E03E0
1F8FE0
1FFFC0
0FFF80
07FF00
01FC00
000000
000000
000000
000000
000000
000000
000000
000000
ENDCHAR

STARTCHAR CODE139
ENCODING 139
SWIDTH 451 0
DWIDTH 20 0
BBX 20 40 0 -6
BITMAP
000000
000000
039C00
039C00
039C00
039C00
039C00
000000
000000
00F000
00F000
00F000
00F000
00F000
00F000
00F000
00F000
00F000
00F000
00F000
00F000
00F000
00F000
00F000
00F000
00F000
00F000
00F000
00F000
00F000
00F000
000000
000000
000000
000000
000000
000000
000000
000000
000000
ENDCHAR

STARTCHAR CODE140
ENCODING 140
SWIDTH 451 0
DWIDTH 20 0
BBX 20 40 0 -6
BITMAP
000000
00F000
01F800
01F800
03FC00
03FC00
039C00
000000
000000
00F000
00F000
00F000
00F000
00F000
00F000
00F000
00F000
00F000
00F000
00F000
00F000
00F000
00F000
00F000
00F000
00F000
00F000
00F000
00F000
00F000
00F000
000000
000000
000000
000000
000000
000000
000000
000000
000000
ENDCHAR

STARTCHAR CODE141
ENCODING 141
SWIDTH 451 0
DWIDTH 20 0
BBX 20 40 0 -6
BITMAP
000000
07C000
07E000
03E000
01F000
00F000
007000
000000
000000
00F000
00F000
00F000
00F000
00F000
00F000
00F000
00F000
00F000
00F000
00F000
00F000
00F000
00F000
00F000
00F000
00F000
00F000
00F000
00F000
00F000
00F000
000000
000000
000000
000000
000000
000000
000000
000000
000000
ENDCHAR

STARTCHAR CODE142
ENCODING 142
SWIDTH 451 0
DWIDTH 20 0
BBX 20 40 0 -6
BITMAP
039C00
039C00
039C00
039C00
000000
000000
00F000
00F000
01F800
01F800
01F800
03FC00
03FC00
03FC00
07FE00
079E00
079E00
0F9F00
0F9F00
0F0F00
0FFF00
1FFF80
1FFF80
1FFF80
3C03C0
3C03C0
3C03C0
7C03E0
7801E0
7801E0
7801E0
000000
000000
000000
000000
000000
000000
000000
000000
000000
ENDCHAR

STARTCHAR CODE143
ENCODING 143
SWIDTH 451 0
DWIDTH 20 0
BBX 20 40 0 -6
BITMAP
01F800
01F800
01F800
01F800
00F000
000000
00F000
00F000
01F800
01F800
01F800
03FC00
03FC00
03FC00
07FE00
079E00
079E00
0F9F00
0F9F00
0F0F00
0FFF00
1FFF80
1FFF80
1FFF80
3C03C0
3C03C0
3C03C0
7C03E0
7801E0
7801E0
7801E0
000000
000000
000000
000000
000000
000000
000000
000000
000000
ENDCHAR

STARTCHAR CODE144
ENCODING 144
SWIDTH 451 0
DWIDTH 20 0
BBX 20 40 0 -6
BITMAP
007E00
007C00
00F800
00F000
00E000
000000
7FFFC0
7FFFC0
7FFFC0
7FFFC0
780000
780000
780000
780000
780000
780000
7FFFC0
7FFFC0
7FFFC0
7FFFC0
780000
780000
780000
780000
780000
780000
780000
7FFFE0
7FFFE0
7FFFE0
7FFFE0
000000
000000
000000
000000
000000
000000
000000
000000
000000
ENDCHAR

STARTCHAR CODE145
ENCODING 145
SWIDTH 451 0
DWIDTH 20 0
BBX 20 40 0 -6
BITMAP
000000
000000
000000
000000
000000
000000
000000
000000
000000
1F8780
3FDFC0
7FFFE0
7FFFE0
79FDF0
70F8F0
70F070
70F070
00F070
1FFFF0
7FFFF0
7FFFF0
FFFFF0
F8F000
F0F000
E0F070
E0F870
F1F8F0
FBFDF0
FFFFF0
7FFFE0
7F1FC0
1E0780
000000
000000
000000
000000
000000
000000
000000
000000
ENDCHAR

STARTCHAR CODE146
ENCODING 146
SWIDTH 451 0
DWIDTH 20 0
BBX 20 40 0 -6
BITMAP
000000
03FFF0
03FFF0
07FFF0
07FFF0
07F800
07F800
07F800
0F7800
0F7800
0F7800
0F7800
1E7800
1E7800
1E7FE0
1E7FE0
1C7FE0
3C7FE0
3FF800
3FF800
3FF800
3FF800
787800
787800
787800
787800
F87800
F07FF0
F07FF0
F07FF0
F07FF0
000000
000000
000000
000000
000000
000000
000000
000000
000000
ENDCHAR

STARTCHAR CODE147
ENCODING 147
SWIDTH 451 0
DWIDTH 20 0
BBX 20 40 0 -6
BITMAP
000000
00F000
01F800
01F800
03FC00
03FC00
039C00
000000
000000
01F800
07FE00
0FFF00
1FFF80
1F0F80
3E07C0
3C03C0
7C03E0
7801E0
7801E0
7801E0
7801E0
7801E0
7801E0
7801E0
7C03E0
7C03E0
3E07C0
3F0FC0
1FFF80
0FFF00
07FE00
01F800
000000
000000
000000
000000
000000
000000
000000
000000
ENDCHAR

STARTCHAR CODE148
ENCODING 148
SWIDTH 451 0
DWIDTH 20 0
BBX 20 40 0 -6
BITMAP
000000
000000
039C00
039C00
039C00
039C00
039C00
000000
000000
01F800
07FE00
0FFF00
1FFF80
1F0F80
3E07C0
3C03C0
7C03E0
7801E0
7801E0
7801E0
7801E0
7801E0
7801E0
7801E0
7C03E0
7C03E0
3E07C0
3F0FC0
1FFF80
0FFF00
07FE00
01F800
000000
000000
000000
000000
000000
000000
000000
000000
ENDCHAR

STARTCHAR CODE149
ENCODING 149
SWIDTH 451 0
DWIDTH 20 0
BBX 20 40 0 -6
BITMAP
000000
07C000
07E000
03E000
01F000
00F000
007000
000000
000000
01F800
07FE00
0FFF00
1FFF80
1F0F80
3E07C0
3C03C0
7C03E0
7801E0
7801E0
7801E0
7801E0
7801E0
7801E0
7801E0
7C03E0
7C03E0
3E07C0
3F0FC0
1FFF80
0FFF00
07FE00
01F800
000000
000000
000000
000000
000000
000000
000000
000000
ENDCHAR

STARTCHAR CODE150
ENCODING 150
SWIDTH 451 0
DWIDTH 20 0
BBX 20 40 0 -6
BITMAP
000000
00F000
01F800
01F800
03FC00
03FC00
039C00
000000
000000
3C03C0
3C03C0
3C03C0
3C03C0
3C03C0
3C03C0
3C03C0
3C03C0
3C03C0
3C03C0
3C03C0
3C03C0
3C03C0
3C03C0
3C03C0
3C03C0
3C07C0
3C07C0
3E0FC0
1FFFC0
1FFFC0
0FFFC0
03F3C0
000000
000000
000000
000000
000000
000000
000000
000000
ENDCHAR

STARTCHAR CODE151
ENCODING 151
SWIDTH 451 0
DWIDTH 20 0
BBX 20 40 0 -6
BITMAP
000000
07C000
07E000
03E000
01F000
00F000
007000
000000
000000
3C03C0
3C03C0
3C03C0
3C03C0
3C03C0
3C03C0
3C03C0
3C03C0
3C03C0
3C03C0
3C03C0
3C03C0
3C03C0
3C03C0
3C03C0
3C03C0
3C07C0
3C07C0
3E0FC0
1FFFC0
1FFFC0
0FFFC0
03F3C0
000000
000000
000000
000000
000000
000000
000000
000000
ENDCHAR

STARTCHAR CODE152
ENCODING 152
SWIDTH 451 0
DWIDTH 20 0
BBX 20 40 0 -6
BITMAP
000000
000000
039C00
039C00
039C00
039C00
039C00
000000
000000
7801E0
7801E0
7C01E0
3C03E0
3E03C0
1E03C0
1E07C0
1F0780
0F0780
0F0F80
0F8F00
078F00
078F00
07DE00
03DE00
03FE00
03FC00
01FC00
01FC00
01FC00
00F800
00F800
00F800
01F000
01F000
07F000
1FE000
1FE000
1FC000
1F0000
000000
ENDCHAR

STARTCHAR CODE153
ENCODING 153
SWIDTH 451 0
DWIDTH 20 0
BBX 20 40 0 -6
BITMAP
039C00
039C00
039C00
039C00
01F800
07FE00
0FFF00
1FFF80
3F9FC0
3E07C0
7C03E0
7C03E0
7801E0
F801F0
F000F0
F000F0
F000F0
F000F0
F000F0
F000F0
F000F0
F000F0
F801F0
7801E0
7C03E0
7C03E0
3E07C0
3F9FC0
1FFF80
0FFF00
07FE00
01F800
000000
000000
000000
000000
000000
000000
000000
000000
ENDCHAR

STARTCHAR CODE154
ENCODING 154
SWIDTH 451 0
DWIDTH 20 0
BBX 20 40 0 -6
BITMAP
039C00
039C00
039C00
039C00
7801E0
7801E0
7801E0
7801E0
7801E0
7801E0
7801E0
7801E0
7801E0
7801E0
7801E0
7801E0
7801E0
7801E0
7801E0
7801E0
7801E0
7801E0
7801E0
7801E0
7C03E0
7C03E0
7E07E0
3F9FC0
3FFFC0
1FFF80
0FFF00
03FC00
000000
000000
000000
000000
000000
000000
000000
000000
ENDCHAR

STARTCHAR CODE155
ENCODING 155
SWIDTH 451 0
DWIDTH 20 0
BBX 20 40 0 -6
BITMAP
000000
000000
000000
000000
000000
001E00
001E00
001E00
01FE00
07FF80
0FFFC0
0FFFC0
1F3FE0
1E3DE0
3E3DE0
3C3DE0
3C7C00
3C7800
3C7800
3C7800
3C7800
3C7800
3CF9E0
3CF1E0
3EF1E0
1EF3E0
1FFFC0
0FFFC0
0FFF80
07FF00
03FC00
01E000
01E000
01E000
01E000
000000
000000
000000
000000
000000
ENDCHAR

STARTCHAR CODE156
ENCODING 156
SWIDTH 451 0
DWIDTH 20 0
BBX 20 40 0 -6
BITMAP
000000
000000
00FC00
03FF00
07FF80
0FFF80
0F87C0
1F07C0
1F03C0
1E03C0
1E03C0
1E0000
1E0000
1E0000
1E0000
7FFF00
7FFF00
7FFF00
7FFF00
0F0000
0F0000
0F0000
0F0000
0F0000
0F0000
0F0000
0F00C0
1FF1E0
3FFFF0
3FFFF0
1EFFE0
0C1FC0
000000
000000
000000
000000
000000
000000
000000
000000
ENDCHAR

STARTCHAR CODE157
ENCODING 157
SWIDTH 451 0
DWIDTH 20 0
BBX 20 40 0 -6
BITMAP
000000
7800F0
7800F0
7C01F0
3C01E0
3E03E0
1E03C0
1F07C0
0F0780
0F8F80
078F00
07DF00
03DE00
03FE00
1FFFC0
1FFFC0
1FFFC0
1FFFC0
00F000
00F000
1FFFC0
1FFFC0
1FFFC0
1FFFC0
00F000
00F000
00F000
00F000
00F000
00F000
00F000
000000
000000
000000
000000
000000
000000
000000
000000
000000
ENDCHAR

STARTCHAR CODE158
ENCODING 158
SWIDTH 451 0
DWIDTH 20 0
BBX 20 40 0 -6
BITMAP
000000
FE0000
FF8000
FFC780
FFE780
F3E780
F1F780
F0F780
F0F780
F07FF0
F07FF0
F07FF0
F0FFF0
F0F780
F1F780
F3E780
FFE780
FFC780
FF8780
FE0780
F00780
F00780
F00780
F00780
F00780
F00780
F007C0
F007F0
F007F0
F003F0
F001F0
000000
000000
000000
000000
000000
000000
000000
000000
000000
ENDCHAR

STARTCHAR CODE159
ENCODING 159
SWIDTH 451 0
DWIDTH 20 0
BBX 20 40 0 -6
BITMAP
000000
0007C0
000FC0
001FC0
001FC0
003E00
003C00
003C00
003C00
007C00
007800
007800
07FF80
07FF80
07FF80
07FF80
00F000
00F000
00F000
00F000
01F000
01E000
01E000
01E000
01E000
01E000
01E000
03E000
03C000
03C000
03C000
03C000
03C000
03C000
07C000
3F8000
3F8000
3F0000
3E0000
000000
ENDCHAR

STARTCHAR CODE160
ENCODING 160
SWIDTH 451 0
DWIDTH 20 0
BBX 20 40 0 -6
BITMAP
000000
003E00
007E00
007C00
00F800
00F000
00E000
000000
000000
03F800
0FFE00
1FFF00
1FBF80
3E0F80
3C07C0
3C07C0
0003C0
003FC0
01FFC0
07FFC0
0FFBC0
1FC3C0
3F03C0
3C03C0
3C07C0
3807C0
3C0FC0
3E3FE0
3FFFF0
1FFDF0
1FF8F0
07E070
000000
000000
000000
000000
000000
000000
000000
000000
ENDCHAR

STARTCHAR CODE161
ENCODING 161
SWIDTH 451 0
DWIDTH 20 0
BBX 20 40 0 -6
BITMAP
000000
003E00
007E00
007C00
00F800
00F000
00E000
000000
000000
00F000
00F000
00F000
00F000
00F000
00F000
00F000
00F000
00F000
00F000
00F000
00F000
00F000
00F000
00F000
00F000
00F000
00F000
00F000
00F000
00F000
00F000
000000
000000
000000
000000
000000
000000
000000
000000
000000
ENDCHAR

STARTCHAR CODE162
ENCODING 162
SWIDTH 451 0
DWIDTH 20 0
BBX 20 40 0 -6
BITMAP
000000
003E00
007E00
007C00
00F800
00F000
00E000
000000
000000
01F800
07FE00
0FFF00
1FFF80
1F0F80
3E07C0
3C03C0
7C03E0
7801E0
7801E0
7801E0
7801E0
7801E0
7801E0
7801E0
7C03E0
7C03E0
3E07C0
3F0FC0
1FFF80
0FFF00
07FE00
01F800
000000
000000
000000
000000
000000
000000
000000
000000
ENDCHAR

STARTCHAR CODE163
ENCODING 163
SWIDTH 451 0
DWIDTH 20 0
BBX 20 40 0 -6
BITMAP
000000
003E00
007E00
007C00
00F800
00F000
00E000
000000
000000
3C03C0
3C03C0
3C03C0
3C03C0
3C03C0
3C03C0
3C03C0
3C03C0
3C03C0
3C03C0
3C03C0
3C03C0
3C03C0
3C03C0
3C03C0
3C03C0
3C07C0
3C07C0
3E0FC0
1FFFC0
1FFFC0
0FFFC0
03F3C0
000000
000000
000000
000000
000000
000000
000000
000000
ENDCHAR

STARTCHAR CODE164
ENCODING 164
SWIDTH 451 0
DWIDTH 20 0
BBX 20 40 0 -6
BITMAP
000000
000000
03E000
07F380
0FFF80
0E7F00
003E00
000000
000000
3CFC00
3FFF00
3FFF80
3FFF80
3F87C0
3E03C0
3E03C0
3C03C0
3C03C0
3C03C0
3C03C0
3C03C0
3C03C0
3C03C0
3C03C0
3C03C0
3C03C0
3C03C0
3C03C0
3C03C0
3C03C0
3C03C0
000000
000000
000000
000000
000000
000000
000000
000000
000000
ENDCHAR

STARTCHAR CODE165
ENCODING 165
SWIDTH 451 0
DWIDTH 20 0
BBX 20 40 0 -6
BITMAP
03E000
07F380
0FFF80
0E7F00
003E00
7801E0
7C01E0
7C01E0
7E01E0
7F01E0
7F01E0
7F81E0
7F81E0
7FC1E0
7BE1E0
7BE1E0
79F1E0
78F1E0
78F9E0
787DE0
787DE0
783FE0
781FE0
781FE0
780FE0
780FE0
7807E0
7803E0
7803E0
7801E0
7801E0
000000
000000
000000
000000
000000
000000
000000
000000
000000
ENDCHAR

STARTCHAR CODE166
ENCODING 166
SWIDTH 451 0
DWIDTH 20 0
BBX 20 40 0 -6
BITMAP
000000
03F800
0FFE00
1FFE00
1F1F00
0C0700
03FF00
0FFF00
1FFF00
1E0700
1C0F00
1E1F00
1FFF80
0FFF80
07F380
000000
07FE00
07FE00
07FE00
000000
000000
000000
000000
000000
000000
000000
000000
000000
000000
000000
000000
000000
000000
000000
000000
000000
000000
000000
000000
000000
ENDCHAR

STARTCHAR CODE167
ENCODING 167
SWIDTH 451 0
DWIDTH 20 0
BBX 20 40 0 -6
BITMAP
000000
01F800
07FE00
0FFF00
0F9F00
1E0780
1E0780
1C0380
1C0380
1E0780
1E0780
0F9F00
0FFF00
07FE00
01F800
000000
07FE00
07FE00
07FE00
000000
000000
000000
000000
000000
000000
000000
000000
000000
000000
000000
000000
000000
000000
000000
000000
000000
000000
000000
000000
000000
ENDCHAR

STARTCHAR CODE168
ENCODING 168
SWIDTH 451 0
DWIDTH 20 0
BBX 20 40 0 -6
BITMAP
000000
000000
000000
000000
000000
000000
000000
000000
000000
00F000
00F000
00F000
00F000
00F000
000000
000000
00F000
00F000
00F000
00F800
00F800
007C00
007E00
003F00
001F80
000FC0
0007C0
0003E0
0003E0
3C01E0
3C01E0
3C03E0
3E03E0
3F0FE0
1FFFC0
1FFFC0
07FF00
01FC00
000000
000000
ENDCHAR

STARTCHAR CODE169
ENCODING 169
SWIDTH 451 0
DWIDTH 20 0
BBX 20 40 0 -6
BITMAP
000000
000000
000000
000000
000000
000000
000000
000000
000000
000000
000000
000000
000000
000000
7FFFE0
7FFFE0
7FFFE0
7FFFE0
780000
780000
780000
780000
780000
780000
000000
000000
000000
000000
000000
000000
000000
000000
000000
000000
000000
000000
000000
000000
000000
000000
ENDCHAR

STARTCHAR CODE170
ENCODING 170
SWIDTH 451 0
DWIDTH 20 0
BBX 20 40 0 -6
BITMAP
000000
000000
000000
000000
000000
000000
000000
000000
000000
000000
000000
000000
000000
000000
7FFFE0
7FFFE0
7FFFE0
7FFFE0
0001E0
0001E0
0001E0
0001E0
0001E0
0001E0
000000
000000
000000
000000
000000
000000
000000
000000
000000
000000
000000
000000
000000
000000
000000
000000
ENDCHAR

STARTCHAR CODE171
ENCODING 171
SWIDTH 451 0
DWIDTH 20 0
BBX 20 40 0 -6
BITMAP
000000
007800
007800
00F800
03F800
03F800
03F800
007800
007800
007800
007800
007800
007800
007800
007800
007800
000000
FFFFF0
FFFFF0
FFFFF0
FFFFF0
000000
01F800
07FE00
0FFF00
1F9F00
1E0F00
1E0F00
003F00
00FF00
03FE00
07F800
0FE000
1FFF80
1FFF80
1FFF80
1FFF80
000000
000000
000000
ENDCHAR

STARTCHAR CODE172
ENCODING 172
SWIDTH 451 0
DWIDTH 20 0
BBX 20 40 0 -6
BITMAP
000000
007800
007800
00F800
03F800
03F800
03F800
007800
007800
007800
007800
007800
007800
007800
007800
007800
000000
FFFFF0
FFFFF0
FFFFF0
FFFFF0
000000
003C00
007C00
00FC00
01FC00
03FC00
07FC00
0FBC00
1F3C00
3E3C00
3FFF80
3FFF80
3FFF80
3FFF80
003C00
003C00
000000
000000
000000
ENDCHAR

STARTCHAR CODE173
ENCODING 173
SWIDTH 451 0
DWIDTH 20 0
BBX 20 40 0 -6
BITMAP
000000
000000
000000
000000
000000
000000
000000
000000
000000
00F000
00F000
00F000
00F000
00F000
000000
000000
006000
006000
006000
006000
006000
00F000
00F000
00F000
00F000
00F000
00F000
00F000
00F000
00F000
00F000
00F000
00F000
00F000
00F000
00F000
00F000
00F000
00F000
000000
ENDCHAR

STARTCHAR CODE174
ENCODING 174
SWIDTH 451 0
DWIDTH 20 0
BBX 20 40 0 -6
BITMAP
000000
000000
000000
000000
000000
000000
000000
000000
000000
000000
000000
000000
00C180
01C380
03C780
07CF80
0FDF80
1FBF00
1F3E00
1E3C00
1F3E00
1FBF00
0FDF80
07CF80
03C780
01C380
00C180
000000
000000
000000
000000
000000
000000
000000
000000
000000
000000
000000
000000
000000
ENDCHAR

STARTCHAR CODE175
ENCODING 175
SWIDTH 451 0
DWIDTH 20 0
BBX 20 40 0 -6
BITMAP
000000
000000
000000
000000
000000
000000
000000
000000
000000
000000
000000
000000
183000
1C3800
1E3C00
1F3E00
1FBF00
0FDF80
07CF80
03C780
07CF80
0FDF80
1FBF00
1F3E00
1E3C00
1C3800
183000
000000
000000
000000
000000
000000
000000
000000
000000
000000
000000
000000
000000
000000
ENDCHAR

STARTCHAR CODE176
ENCODING 176
SWIDTH 451 0
DWIDTH 20 0
BBX 20 40 0 -6
BITMAP
000000
666660
666660
000000
000000
000000
000000
666660
666660
000000
000000
000000
000000
666660
666660
000000
000000
000000
000000
666660
666660
000000
000000
000000
000000
666660
666660
000000
000000
000000
000000
666660
666660
000000
000000
000000
000000
666660
666660
000000
ENDCHAR

STARTCHAR CODE177
ENCODING 177
SWIDTH 451 0
DWIDTH 20 0
BBX 20 40 0 -6
BITMAP
318C60
7BDEF0
7BDEF0
318C60
000000
000000
318C60
7BDEF0
7BDEF0
318C60
000000
000000
318C60
7BDEF0
7BDEF0
318C60
000000
000000
318C60
7BDEF0
7BDEF0
318C60
000000
000000
318C60
7BDEF0
7BDEF0
318C60
000000
000000
318C60
7BDEF0
7BDEF0
318C60
000000
000000
318C60
7BDEF0
7BDEF0
318C60
ENDCHAR

STARTCHAR CODE178
ENCODING 178
SWIDTH 451 0
DWIDTH 20 0
BBX 20 40 0 -6
BITMAP
7BDEF0
7BDEF0
7BDEF0
318C60
000000
318C60
7BDEF0
7BDEF0
7BDEF0
318C60
000000
318C60
7BDEF0
7BDEF0
7BDEF0
318C60
000000
318C60
7BDEF0
7BDEF0
7BDEF0
318C60
000000
318C60
7BDEF0
7BDEF0
7BDEF0
318C60
000000
318C60
7BDEF0
7BDEF0
7BDEF0
318C60
000000
318C60
7BDEF0
7BDEF0
7BDEF0
318C60
ENDCHAR

STARTCHAR CODE179
ENCODING 179
SWIDTH 451 0
DWIDTH 20 0
BBX 20 40 0 -6
BITMAP
007000
007000
007000
007000
007000
007000
007000
007000
007000
007000
007000
007000
007000
007000
007000
007000
007000
007000
007000
007000
007000
007000
007000
007000
007000
007000
007000
007000
007000
007000
007000
007000
007000
007000
007000
007000
007000
007000
007000
007000
ENDCHAR

STARTCHAR CODE180
ENCODING 180
SWIDTH 451 0
DWIDTH 20 0
BBX 20 40 0 -6
BITMAP
007000
007000
007000
007000
007000
007000
007000
007000
007000
007000
007000
007000
007000
007000
007000
007000
007000
007000
FFF000
FFF000
FFF000
007000
007000
007000
007000
007000
007000
007000
007000
007000
007000
007000
007000
007000
007000
007000
007000
007000
007000
007000
ENDCHAR

STARTCHAR CODE181
ENCODING 181
SWIDTH 451 0
DWIDTH 20 0
BBX 20 40 0 -6
BITMAP
007000
007000
007000
007000
007000
007000
007000
007000
007000
007000
007000
007000
007000
007000
007000
007000
FFF000
FFF000
FFF000
007000
FFF000
FFF000
FFF000
007000
007000
007000
007000
007000
007000
007000
007000
007000
007000
007000
007000
007000
007000
007000
007000
007000
ENDCHAR

STARTCHAR CODE182
ENCODING 182
SWIDTH 451 0
DWIDTH 20 0
BBX 20 40 0 -6
BITMAP
01DC00
01DC00
01DC00
01DC00
01DC00
01DC00
01DC00
01DC00
01DC00
01DC00
01DC00
01DC00
01DC00
01DC00
01DC00
01DC00
01DC00
01DC00
FFDC00
FFDC00
FFDC00
01DC00
01DC00
01DC00
01DC00
01DC00
01DC00
01DC00
01DC00
01DC00
01DC00
01DC00
01DC00
01DC00
01DC00
01DC00
01DC00
01DC00
01DC00
01DC00
ENDCHAR

STARTCHAR CODE183
ENCODING 183
SWIDTH 451 0
DWIDTH 20 0
BBX 20 40 0 -6
BITMAP
000000
000000
000000
000000
000000
000000
000000
000000
000000
000000
000000
000000
000000
000000
000000
000000
000000
000000
FFFC00
FFFC00
FFFC00
01DC00
01DC00
01DC00
01DC00
01DC00
01DC00
01DC00
01DC00
01DC00
01DC00
01DC00
01DC00
01DC00
01DC00
01DC00
01DC00
01DC00
01DC00
01DC00
ENDCHAR

STARTCHAR CODE184
ENCODING 184
SWIDTH 451 0
DWIDTH 20 0
BBX 20 40 0 -6
BITMAP
000000
000000
000000
000000
000000
000000
000000
000000
000000
000000
000000
000000
000000
000000
000000
000000
FFF000
FFF000
FFF000
007000
FFF000
FFF000
FFF000
007000
007000
007000
007000
007000
007000
007000
007000
007000
007000
007000
007000
007000
007000
007000
007000
007000
ENDCHAR

STARTCHAR CODE185
ENCODING 185
SWIDTH 451 0
DWIDTH 20 0
BBX 20 40 0 -6
BITMAP
01DC00
01DC00
01DC00
01DC00
01DC00
01DC00
01DC00
01DC00
01DC00
01DC00
01DC00
01DC00
01DC00
01DC00
01DC00
01DC00
FFDC00
FFDC00
FFDC00
001C00
FFDC00
FFDC00
FFDC00
01DC00
01DC00
01DC00
01DC00
01DC00
01DC00
01DC00
01DC00
01DC00
01DC00
01DC00
01DC00
01DC00
01DC00
01DC00
01DC00
01DC00
ENDCHAR

STARTCHAR CODE186
ENCODING 186
SWIDTH 451 0
DWIDTH 20 0
BBX 20 40 0 -6
BITMAP
01DC00
01DC00
01DC00
01DC00
01DC00
01DC00
01DC00
01DC00
01DC00
01DC00
01DC00
01DC00
01DC00
01DC00
01DC00
01DC00
01DC00
01DC00
01DC00
01DC00
01DC00
01DC00
01DC00
01DC00
01DC00
01DC00
01DC00
01DC00
01DC00
01DC00
01DC00
01DC00
01DC00
01DC00
01DC00
01DC00
01DC00
01DC00
01DC00
01DC00
ENDCHAR

STARTCHAR CODE187
ENCODING 187
SWIDTH 451 0
DWIDTH 20 0
BBX 20 40 0 -6
BITMAP
000000
000000
000000
000000
000000
000000
000000
000000
000000
000000
000000
000000
000000
000000
000000
000000
FFFC00
FFFC00
FFFC00
001C00
FFDC00
FFDC00
FFDC00
01DC00
01DC00
01DC00
01DC00
01DC00
01DC00
01DC00
01DC00
01DC00
01DC00
01DC00
01DC00
01DC00
01DC00
01DC00
01DC00
01DC00
ENDCHAR

STARTCHAR CODE188
ENCODING 188
SWIDTH 451 0
DWIDTH 20 0
BBX 20 40 0 -6
BITMAP
01DC00
01DC00
01DC00
01DC00
01DC00
01DC00
01DC00
01DC00
01DC00
01DC00
01DC00
01DC00
01DC00
01DC00
01DC00
01DC00
FFDC00
FFDC00
FFDC00
001C00
FFFC00
FFFC00
FFFC00
000000
000000
000000
000000
000000
000000
000000
000000
000000
000000
000000
000000
000000
000000
000000
000000
000000
ENDCHAR

STARTCHAR CODE189
ENCODING 189
SWIDTH 451 0
DWIDTH 20 0
BBX 20 40 0 -6
BITMAP
01DC00
01DC00
01DC00
01DC00
01DC00
01DC00
01DC00
01DC00
01DC00
01DC00
01DC00
01DC00
01DC00
01DC00
01DC00
01DC00
01DC00
01DC00
FFFC00
FFFC00
FFFC00
000000
000000
000000
000000
000000
000000
000000
000000
000000
000000
000000
000000
000000
000000
000000
000000
000000
000000
000000
ENDCHAR

STARTCHAR CODE190
ENCODING 190
SWIDTH 451 0
DWIDTH 20 0
BBX 20 40 0 -6
BITMAP
007000
007000
007000
007000
007000
007000
007000
007000
007000
007000
007000
007000
007000
007000
007000
007000
FFF000
FFF000
FFF000
007000
FFF000
FFF000
FFF000
000000
000000
000000
000000
000000
000000
000000
000000
000000
000000
000000
000000
000000
000000
000000
000000
000000
ENDCHAR

STARTCHAR CODE191
ENCODING 191
SWIDTH 451 0
DWIDTH 20 0
BBX 20 40 0 -6
BITMAP
000000
000000
000000
000000
000000
000000
000000
000000
000000
000000
000000
000000
000000
000000
000000
000000
000000
000000
FFF000
FFF000
FFF000
007000
007000
007000
007000
007000
007000
007000
007000
007000
007000
007000
007000
007000
007000
007000
007000
007000
007000
007000
ENDCHAR

STARTCHAR CODE192
ENCODING 192
SWIDTH 451 0
DWIDTH 20 0
BBX 20 40 0 -6
BITMAP
007000
007000
007000
007000
007000
007000
007000
007000
007000
007000
007000
007000
007000
007000
007000
007000
007000
007000
007FF0
007FF0
007FF0
000000
000000
000000
000000
000000
000000
000000
000000
000000
000000
000000
000000
000000
000000
000000
000000
000000
000000
000000
ENDCHAR

STARTCHAR CODE193
ENCODING 193
SWIDTH 451 0
DWIDTH 20 0
BBX 20 40 0 -6
BITMAP
007000
007000
007000
007000
007000
007000
007000
007000
007000
007000
007000
007000
007000
007000
007000
007000
007000
007000
FFFFF0
FFFFF0
FFFFF0
000000
000000
000000
000000
000000
000000
000000
000000
000000
000000
000000
000000
000000
000000
000000
000000
000000
000000
000000
ENDCHAR

STARTCHAR CODE194
ENCODING 194
SWIDTH 451 0
DWIDTH 20 0
BBX 20 40 0 -6
BITMAP
000000
000000
000000
000000
000000
000000
000000
000000
000000
000000
000000
000000
000000
000000
000000
000000
000000
000000
FFFFF0
FFFFF0
FFFFF0
007000
007000
007000
007000
007000
007000
007000
007000
007000
007000
007000
007000
007000
007000
007000
007000
007000
007000
007000
ENDCHAR

STARTCHAR CODE195
ENCODING 195
SWIDTH 451 0
DWIDTH 20 0
BBX 20 40 0 -6
BITMAP
007000
007000
007000
007000
007000
007000
007000
007000
007000
007000
007000
007000
007000
007000
007000
007000
007000
007000
007FF0
007FF0
007FF0
007000
007000
007000
007000
007000
007000
007000
007000
007000
007000
007000
007000
007000
007000
007000
007000
007000
007000
007000
ENDCHAR

STARTCHAR CODE196
ENCODING 196
SWIDTH 451 0
DWIDTH 20 0
BBX 20 40 0 -6
BITMAP
000000
000000
000000
000000
000000
000000
000000
000000
000000
000000
000000
000000
000000
000000
000000
000000
000000
000000
FFFFF0
FFFFF0
FFFFF0
000000
000000
000000
000000
000000
000000
000000
000000
000000
000000
000000
000000
000000
000000
000000
000000
000000
000000
000000
ENDCHAR

STARTCHAR CODE197
ENCODING 197
SWIDTH 451 0
DWIDTH 20 0
BBX 20 40 0 -6
BITMAP
007000
007000
007000
007000
007000
007000
007000
007000
007000
007000
007000
007000
007000
007000
007000
007000
007000
007000
FFFFF0
FFFFF0
FFFFF0
007000
007000
007000
007000
007000
007000
007000
007000
007000
007000
007000
007000
007000
007000
007000
007000
007000
007000
007000
ENDCHAR

STARTCHAR CODE198
ENCODING 198
SWIDTH 451 0
DWIDTH 20 0
BBX 20 40 0 -6
BITMAP
007000
007000
007000
007000
007000
007000
007000
007000
007000
007000
007000
007000
007000
007000
007000
007000
007FF0
007FF0
007FF0
007000
007FF0
007FF0
007FF0
007000
007000
007000
007000
007000
007000
007000
007000
007000
007000
007000
007000
007000
007000
007000
007000
007000
ENDCHAR

STARTCHAR CODE199
ENCODING 199
SWIDTH 451 0
DWIDTH 20 0
BBX 20 40 0 -6
BITMAP
01DC00
01DC00
01DC00
01DC00
01DC00
01DC00
01DC00
01DC00
01DC00
01DC00
01DC00
01DC00
01DC00
01DC00
01DC00
01DC00
01DC00
01DC00
01DFF0
01DFF0
01DFF0
01DC00
01DC00
01DC00
01DC00
01DC00
01DC00
01DC00
01DC00
01DC00
01DC00
01DC00
01DC00
01DC00
01DC00
01DC00
01DC00
01DC00
01DC00
01DC00
ENDCHAR

STARTCHAR CODE200
ENCODING 200
SWIDTH 451 0
DWIDTH 20 0
BBX 20 40 0 -6
BITMAP
01DC00
01DC00
01DC00
01DC00
01DC00
01DC00
01DC00
01DC00
01DC00
01DC00
01DC00
01DC00
01DC00
01DC00
01DC00
01DC00
01DFF0
01DFF0
01DFF0
01C000
01FFF0
01FFF0
01FFF0
000000
000000
000000
000000
000000
000000
000000
000000
000000
000000
000000
000000
000000
000000
000000
000000
000000
ENDCHAR

STARTCHAR CODE201
ENCODING 201
SWIDTH 451 0
DWIDTH 20 0
BBX 20 40 0 -6
BITMAP
000000
000000
000000
000000
000000
000000
000000
000000
000000
000000
000000
000000
000000
000000
000000
000000
01FFF0
01FFF0
01FFF0
01C000
01DFF0
01DFF0
01DFF0
01DC00
01DC00
01DC00
01DC00
01DC00
01DC00
01DC00
01DC00
01DC00
01DC00
01DC00
01DC00
01DC00
01DC00
01DC00
01DC00
01DC00
ENDCHAR

STARTCHAR CODE202
ENCODING 202
SWIDTH 451 0
DWIDTH 20 0
BBX 20 40 0 -6
BITMAP
01DC00
01DC00
01DC00
01DC00
01DC00
01DC00
01DC00
01DC00
01DC00
01DC00
01DC00
01DC00
01DC00
01DC00
01DC00
01DC00
FFDFF0
FFDFF0
FFDFF0
000000
FFFFF0
FFFFF0
FFFFF0
000000
000000
000000
000000
000000
000000
000000
000000
000000
000000
000000
000000
000000
000000
000000
000000
000000
ENDCHAR

STARTCHAR CODE203
ENCODING 203
SWIDTH 451 0
DWIDTH 20 0
BBX 20 40 0 -6
BITMAP
000000
000000
000000
000000
000000
000000
000000
000000
000000
000000
000000
000000
000000
000000
000000
000000
FFFFF0
FFFFF0
FFFFF0
000000
FFDFF0
FFDFF0
FFDFF0
01DC00
01DC00
01DC00
01DC00
01DC00
01DC00
01DC00
01DC00
01DC00
01DC00
01DC00
01DC00
01DC00
01DC00
01DC00
01DC00
01DC00
ENDCHAR

STARTCHAR CODE204
ENCODING 204
SWIDTH 451 0
DWIDTH 20 0
BBX 20 40 0 -6
BITMAP
01DC00
01DC00
01DC00
01DC00
01DC00
01DC00
01DC00
01DC00
01DC00
01DC00
01DC00
01DC00
01DC00
01DC00
01DC00
01DC00
01DFF0
01DFF0
01DFF0
01C000
01DFF0
01DFF0
01DFF0
01DC00
01DC00
01DC00
01DC00
01DC00
01DC00
01DC00
01DC00
01DC00
01DC00
01DC00
01DC00
01DC00
01DC00
01DC00
01DC00
01DC00
ENDCHAR

STARTCHAR CODE205
ENCODING 205
SWIDTH 451 0
DWIDTH 20 0
BBX 20 40 0 -6
BITMAP
000000
000000
000000
000000
000000
000000
000000
000000
000000
000000
000000
000000
000000
000000
000000
000000
FFFFF0
FFFFF0
FFFFF0
000000
FFFFF0
FFFFF0
FFFFF0
000000
000000
000000
000000
000000
000000
000000
000000
000000
000000
000000
000000
000000
000000
000000
000000
000000
ENDCHAR

STARTCHAR CODE206
ENCODING 206
SWIDTH 451 0
DWIDTH 20 0
BBX 20 40 0 -6
BITMAP
01DC00
01DC00
01DC00
01DC00
01DC00
01DC00
01DC00
01DC00
01DC00
01DC00
01DC00
01DC00
01DC00
01DC00
01DC00
01DC00
FFDFF0
FFDFF0
FFDFF0
000000
FFDFF0
FFDFF0
FFDFF0
01DC00
01DC00
01DC00
01DC00
01DC00
01DC00
01DC00
01DC00
01DC00
01DC00
01DC00
01DC00
01DC00
01DC00
01DC00
01DC00
01DC00
ENDCHAR

STARTCHAR CODE207
ENCODING 207
SWIDTH 451 0
DWIDTH 20 0
BBX 20 40 0 -6
BITMAP
007000
007000
007000
007000
007000
007000
007000
007000
007000
007000
007000
007000
007000
007000
007000
007000
FFFFF0
FFFFF0
FFFFF0
000000
FFFFF0
FFFFF0
FFFFF0
000000
000000
000000
000000
000000
000000
000000
000000
000000
000000
000000
000000
000000
000000
000000
000000
000000
ENDCHAR

STARTCHAR CODE208
ENCODING 208
SWIDTH 451 0
DWIDTH 20 0
BBX 20 40 0 -6
BITMAP
01DC00
01DC00
01DC00
01DC00
01DC00
01DC00
01DC00
01DC00
01DC00
01DC00
01DC00
01DC00
01DC00
01DC00
01DC00
01DC00
01DC00
01DC00
FFFFF0
FFFFF0
FFFFF0
000000
000000
000000
000000
000000
000000
000000
000000
000000
000000
000000
000000
000000
000000
000000
000000
000000
000000
000000
ENDCHAR

STARTCHAR CODE209
ENCODING 209
SWIDTH 451 0
DWIDTH 20 0
BBX 20 40 0 -6
BITMAP
000000
000000
000000
000000
000000
000000
000000
000000
000000
000000
000000
000000
000000
000000
000000
000000
FFFFF0
FFFFF0
FFFFF0
000000
FFFFF0
FFFFF0
FFFFF0
007000
007000
007000
007000
007000
007000
007000
007000
007000
007000
007000
007000
007000
007000
007000
007000
007000
ENDCHAR

STARTCHAR CODE210
ENCODING 210
SWIDTH 451 0
DWIDTH 20 0
BBX 20 40 0 -6
BITMAP
000000
000000
000000
000000
000000
000000
000000
000000
000000
000000
000000
000000
000000
000000
000000
000000
000000
000000
FFFFF0
FFFFF0
FFFFF0
01DC00
01DC00
01DC00
01DC00
01DC00
01DC00
01DC00
01DC00
01DC00
01DC00
01DC00
01DC00
01DC00
01DC00
01DC00
01DC00
01DC00
01DC00
01DC00
ENDCHAR

STARTCHAR CODE211
ENCODING 211
SWIDTH 451 0
DWIDTH 20 0
BBX 20 40 0 -6
BITMAP
01DC00
01DC00
01DC00
01DC00
01DC00
01DC00
01DC00
01DC00
01DC00
01DC00
01DC00
01DC00
01DC00
01DC00
01DC00
01DC00
01DC00
01DC00
01FFF0
01FFF0
01FFF0
000000
000000
000000
000000
000000
000000
000000
000000
000000
000000
000000
000000
000000
000000
000000
000000
000000
000000
000000
ENDCHAR

STARTCHAR CODE212
ENCODING 212
SWIDTH 451 0
DWIDTH 20 0
BBX 20 40 0 -6
BITMAP
007000
007000
007000
007000
007000
007000
007000
007000
007000
007000
007000
007000
007000
007000
007000
007000
007FF0
007FF0
007FF0
007000
007FF0
007FF0
007FF0
000000
000000
000000
000000
000000
000000
000000
000000
000000
000000
000000
000000
000000
000000
000000
000000
000000
ENDCHAR

STARTCHAR CODE213
ENCODING 213
SWIDTH 451 0
DWIDTH 20 0
BBX 20 40 0 -6
BITMAP
000000
000000
000000
000000
000000
000000
000000
000000
000000
000000
000000
000000
000000
000000
000000
000000
007FF0
007FF0
007FF0
007000
007FF0
007FF0
007FF0
007000
007000
007000
007000
007000
007000
007000
007000
007000
007000
007000
007000
007000
007000
007000
007000
007000
ENDCHAR

STARTCHAR CODE214
ENCODING 214
SWIDTH 451 0
DWIDTH 20 0
BBX 20 40 0 -6
BITMAP
000000
000000
000000
000000
000000
000000
000000
000000
000000
000000
000000
000000
000000
000000
000000
000000
000000
000000
01FFF0
01FFF0
01FFF0
01DC00
01DC00
01DC00
01DC00
01DC00
01DC00
01DC00
01DC00
01DC00
01DC00
01DC00
01DC00
01DC00
01DC00
01DC00
01DC00
01DC00
01DC00
01DC00
ENDCHAR

STARTCHAR CODE215
ENCODING 215
SWIDTH 451 0
DWIDTH 20 0
BBX 20 40 0 -6
BITMAP
01DC00
01DC00
01DC00
01DC00
01DC00
01DC00
01DC00
01DC00
01DC00
01DC00
01DC00
01DC00
01DC00
01DC00
01DC00
01DC00
01DC00
01DC00
FFFFF0
FFFFF0
FFFFF0
01DC00
01DC00
01DC00
01DC00
01DC00
01DC00
01DC00
01DC00
01DC00
01DC00
01DC00
01DC00
01DC00
01DC00
01DC00
01DC00
01DC00
01DC00
01DC00
ENDCHAR

STARTCHAR CODE216
ENCODING 216
SWIDTH 451 0
DWIDTH 20 0
BBX 20 40 0 -6
BITMAP
007000
007000
007000
007000
007000
007000
007000
007000
007000
007000
007000
007000
007000
007000
007000
007000
FFFFF0
FFFFF0
FFFFF0
007000
FFFFF0
FFFFF0
FFFFF0
007000
007000
007000
007000
007000
007000
007000
007000
007000
007000
007000
007000
007000
007000
007000
007000
007000
ENDCHAR

STARTCHAR CODE217
ENCODING 217
SWIDTH 451 0
DWIDTH 20 0
BBX 20 40 0 -6
BITMAP
007000
007000
007000
007000
007000
007000
007000
007000
007000
007000
007000
007000
007000
007000
007000
007000
007000
007000
FFF000
FFF000
FFF000
000000
000000
000000
000000
000000
000000
000000
000000
000000
000000
000000
000000
000000
000000
000000
000000
000000
000000
000000
ENDCHAR

STARTCHAR CODE218
ENCODING 218
SWIDTH 451 0
DWIDTH 20 0
BBX 20 40 0 -6
BITMAP
000000
000000
000000
000000
000000
000000
000000
000000
000000
000000
000000
000000
000000
000000
000000
000000
000000
000000
007FF0
007FF0
007FF0
007000
007000
007000
007000
007000
007000
007000
007000
007000
007000
007000
007000
007000
007000
007000
007000
007000
007000
007000
ENDCHAR

STARTCHAR CODE219
ENCODING 219
SWIDTH 451 0
DWIDTH 20 0
BBX 20 40 0 -6
BITMAP
FFFFF0
FFFFF0
FFFFF0
FFFFF0
FFFFF0
FFFFF0
FFFFF0
FFFFF0
FFFFF0
FFFFF0
FFFFF0
FFFFF0
FFFFF0
FFFFF0
FFFFF0
FFFFF0
FFFFF0
FFFFF0
FFFFF0
FFFFF0
FFFFF0
FFFFF0
FFFFF0
FFFFF0
FFFFF0
FFFFF0
FFFFF0
FFFFF0
FFFFF0
FFFFF0
FFFFF0
FFFFF0
FFFFF0
FFFFF0
FFFFF0
FFFFF0
FFFFF0
FFFFF0
FFFFF0
FFFFF0
ENDCHAR

STARTCHAR CODE220
ENCODING 220
SWIDTH 451 0
DWIDTH 20 0
BBX 20 40 0 -6
BITMAP
000000
000000
000000
000000
000000
000000
000000
000000
000000
000000
000000
000000
000000
000000
000000
000000
000000
000000
000000
FFFFF0
FFFFF0
FFFFF0
FFFFF0
FFFFF0
FFFFF0
FFFFF0
FFFFF0
FFFFF0
FFFFF0
FFFFF0
FFFFF0
FFFFF0
FFFFF0
FFFFF0
FFFFF0
FFFFF0
FFFFF0
FFFFF0
FFFFF0
FFFFF0
ENDCHAR

STARTCHAR CODE221
ENCODING 221
SWIDTH 451 0
DWIDTH 20 0
BBX 20 40 0 -6
BITMAP
FFE000
FFE000
FFE000
FFE000
FFE000
FFE000
FFE000
FFE000
FFE000
FFE000
FFE000
FFE000
FFE000
FFE000
FFE000
FFE000
FFE000
FFE000
FFE000
FFE000
FFE000
FFE000
FFE000
FFE000
FFE000
FFE000
FFE000
FFE000
FFE000
FFE000
FFE000
FFE000
FFE000
FFE000
FFE000
FFE000
FFE000
FFE000
FFE000
FFE000
ENDCHAR

STARTCHAR CODE222
ENCODING 222
SWIDTH 451 0
DWIDTH 20 0
BBX 20 40 0 -6
BITMAP
003FF0
003FF0
003FF0
003FF0
003FF0
003FF0
003FF0
003FF0
003FF0
003FF0
003FF0
003FF0
003FF0
003FF0
003FF0
003FF0
003FF0
003FF0
003FF0
003FF0
003FF0
003FF0
003FF0
003FF0
003FF0
003FF0
003FF0
003FF0
003FF0
003FF0
003FF0
003FF0
003FF0
003FF0
003FF0
003FF0
003FF0
003FF0
003FF0
003FF0
ENDCHAR

STARTCHAR CODE223
ENCODING 223
SWIDTH 451 0
DWIDTH 20 0
BBX 20 40 0 -6
BITMAP
FFFFF0
FFFFF0
FFFFF0
FFFFF0
FFFFF0
FFFFF0
FFFFF0
FFFFF0
FFFFF0
FFFFF0
FFFFF0
FFFFF0
FFFFF0
FFFFF0
FFFFF0
FFFFF0
FFFFF0
FFFFF0
FFFFF0
FFFFF0
000000
000000
000000
000000
000000
000000
000000
000000
000000
000000
000000
000000
000000
000000
000000
000000
000000
000000
000000
000000
ENDCHAR

STARTCHAR CODE224
ENCODING 224
SWIDTH 451 0
DWIDTH 20 0
BBX 20 40 0 -6
BITMAP
000000
000000
000000
000000
000000
000000
000000
000000
000000
000000
000000
000000
000000
03F000
0FFCE0
1FFCF0
1F3FF0
3E1FE0
3C1FE0
7C0FC0
780F80
780F80
780F00
780F00
780F00
780F00
7C1F00
7C3F70
3E7FF0
3FFFF0
1FFFE0
0FF7C0
03E380
000000
000000
000000
000000
000000
000000
000000
ENDCHAR

STARTCHAR CODE225
ENCODING 225
SWIDTH 451 0
DWIDTH 20 0
BBX 20 40 0 -6
BITMAP
000000
000000
03F800
07FC00
0FFE00
0FFF00
1F1F00
1E0F80
1E0780
1C0780
3C0780
3C0780
3C0F80
3C0F00
3C1F00
3CFE00
3CFE00
3CFF00
3CFF80
3C0FC0
3C07C0
3C03E0
3C01E0
3C01E0
3C01E0
3C03E0
3E03E0
3F8FC0
3FFFC0
3FFF80
3FFF00
3CFC00
3C0000
3C0000
3C0000
3C0000
3C0000
000000
000000
000000
ENDCHAR

STARTCHAR CODE226
ENCODING 226
SWIDTH 451 0
DWIDTH 20 0
BBX 20 40 0 -6
BITMAP
000000
000000
000000
1FFFE0
1FFFE0
1FFFE0
1FFFE0
1E0000
1E0000
1E0000
1E0000
1E0000
1E0000
1E0000
1E0000
1E0000
1E0000
1E0000
1E0000
1E0000
1E0000
1E0000
1E0000
1E0000
1E0000
1E0000
1E0000
1E0000
1E0000
1E0000
1E0000
000000
000000
000000
000000
000000
000000
000000
000000
000000
ENDCHAR

STARTCHAR CODE227
ENCODING 227
SWIDTH 451 0
DWIDTH 20 0
BBX 20 40 0 -6
BITMAP
000000
000000
000000
000000
000000
000000
000000
000000
000000
000000
000000
000000
000000
000000
3FFFC0
3FFFC0
3FFFC0
3FFFC0
079E00
079E00
079E00
079E00
079E00
079E00
079E00
079E00
079E00
079F00
079FC0
078FC0
078FC0
0783C0
000000
000000
000000
000000
000000
000000
000000
000000
ENDCHAR

STARTCHAR CODE228
ENCODING 228
SWIDTH 451 0
DWIDTH 20 0
BBX 20 40 0 -6
BITMAP
000000
000000
000000
3FFF80
3FFF80
3FFF80
3FFF80
1E0000
1F0000
0F8000
078000
07C000
03E000
01E000
01F000
00F800
00F800
00F800
00F800
01F000
01F000
03E000
07C000
07C000
0F8000
0F0000
1F0000
1E0000
3FFF80
3FFF80
3FFF80
3FFF80
000000
000000
000000
000000
000000
000000
000000
000000
ENDCHAR

STARTCHAR CODE229
ENCODING 229
SWIDTH 451 0
DWIDTH 20 0
BBX 20 40 0 -6
BITMAP
000000
000000
000000
000000
000000
000000
000000
000000
0003E0
001FE0
007FE0
00FFE0
01FC00
03FC00
07FE00
07FE00
0F9F00
0F0F00
1F0F00
1E0780
1E0780
1E0780
1E0780
1E0780
1E0780
1E0780
1F0F80
1F0F00
0F9F00
0FFF00
07FE00
03FC00
00F000
000000
000000
000000
000000
000000
000000
000000
ENDCHAR

STARTCHAR CODE230
ENCODING 230
SWIDTH 451 0
DWIDTH 20 0
BBX 20 40 0 -6
BITMAP
000000
000000
000000
000000
000000
000000
000000
000000
000000
000000
000000
000000
000000
3C1E00
3C1E00
3C1E00
3C1E00
3C1E00
3C1E00
3C1E00
3C1E00
3C1E00
3C1E00
3C1E00
3C1E00
3E1E00
3E1F00
3F3FC0
3FFFC0
3FFFC0
3FFBC0
3DF000
3C0000
3C0000
3C0000
3C0000
3C0000
000000
000000
000000
ENDCHAR

STARTCHAR CODE231
ENCODING 231
SWIDTH 451 0
DWIDTH 20 0
BBX 20 40 0 -6
BITMAP
000000
000000
000000
000000
000000
000000
000000
000000
000000
000000
000000
000000
000000
000000
1FFF00
1FFF00
1FFF00
1FFF00
01E000
01E000
01E000
01E000
01E000
01E000
01E000
01E000
01E000
01F000
01FE00
00FE00
00FE00
003E00
000000
000000
000000
000000
000000
000000
000000
000000
ENDCHAR

STARTCHAR CODE232
ENCODING 232
SWIDTH 451 0
DWIDTH 20 0
BBX 20 40 0 -6
BITMAP
000000
000000
000000
00F000
00F000
00F000
03FC00
0FFF00
1FFF80
1FFF80
3EF7C0
3CF3C0
7CF3E0
78F1E0
78F1E0
78F1E0
78F1E0
78F1E0
78F1E0
78F1E0
78F1E0
78F1E0
7CF3C0
3CF3C0
3EF7C0
1FFFC0
1FFF80
0FFF00
03FC00
00F000
00F000
00F000
000000
000000
000000
000000
000000
000000
000000
000000
ENDCHAR

STARTCHAR CODE233
ENCODING 233
SWIDTH 451 0
DWIDTH 20 0
BBX 20 40 0 -6
BITMAP
000000
000000
000000
01F800
07FE00
0FFF00
0FFF00
1F9F80
1E0780
1E07C0
3C03C0
3C03C0
3C03C0
3C03C0
3C03C0
3C03C0
3FFFC0
3FFFC0
3FFFC0
3FFFC0
3C03C0
3C03C0
3C03C0
3C03C0
3C03C0
1E0780
1E0780
1F9F80
0FFF00
0FFF00
07FE00
01F800
000000
000000
000000
000000
000000
000000
000000
000000
ENDCHAR

STARTCHAR CODE234
ENCODING 234
SWIDTH 451 0
DWIDTH 20 0
BBX 20 40 0 -6
BITMAP
000000
000000
000000
01F800
07FE00
0FFF00
1FFF80
3F0FC0
3E07C0
3C03C0
7C03E0
7801E0
7801E0
7801E0
7801E0
7801E0
7801E0
7801E0
7C03C0
3C03C0
3E07C0
1F0F80
0F0F00
0F9F00
079E00
079E00
079E00
079E00
3F9FC0
3F9FC0
3F9FC0
3F9FC0
000000
000000
000000
000000
000000
000000
000000
000000
ENDCHAR

STARTCHAR CODE235
ENCODING 235
SWIDTH 451 0
DWIDTH 20 0
BBX 20 40 0 -6
BITMAP
000000
000000
000000
003C00
00FF00
01FF80
01FFC0
03E7C0
03C3C0
03C180
03E000
01E000
01F000
00F800
00F800
03FC00
07FC00
0FFE00
1FBE00
1E1F00
3E1F00
3C0F00
3C0F00
3C0F00
3C0F00
3C0F00
3E1F00
1E1E00
1F3E00
0FFC00
0FFC00
07F800
01E000
000000
000000
000000
000000
000000
000000
000000
ENDCHAR

STARTCHAR CODE236
ENCODING 236
SWIDTH 451 0
DWIDTH 20 0
BBX 20 40 0 -6
BITMAP
000000
000000
000000
000000
000000
000000
000000
000000
000000
000000
0F0F00
3F9FC0
3FFFC0
7DFBE0
79F9E0
78F1E0
78F1E0
78F1E0
78F1E0
78F1E0
78F1E0
79F9E0
7DFBE0
3FFFC0
3F9FC0
0F0F00
000000
000000
000000
000000
000000
000000
000000
000000
000000
000000
000000
000000
000000
000000
ENDCHAR

STARTCHAR CODE237
ENCODING 237
SWIDTH 451 0
DWIDTH 20 0
BBX 20 40 0 -6
BITMAP
000000
000000
000000
000000
000000
000000
000000
000E00
000E00
001E00
001E00
001E00
001C00
03FC00
07FE00
07FE00
0FFF00
0FFF00
1F7F80
1E7780
1E7780
1EF780
1EF780
1EF780
1EE780
1EE780
1FEF80
0FEF00
0FFF00
07FE00
07FE00
03FC00
03F000
078000
078000
070000
070000
000000
000000
000000
ENDCHAR

STARTCHAR CODE238
ENCODING 238
SWIDTH 451 0
DWIDTH 20 0
BBX 20 40 0 -6
BITMAP
000000
000000
000000
000000
000000
000000
000000
000000
000000
000000
000000
000000
03F800
0FFE00
1FFF80
3F9FC0
3E07C0
3E0380
3E0000
3F8000
1FFC00
0FFC00
1FFC00
3FFC00
7F0000
7C0000
7801C0
7E07E0
7F9FE0
3FFFC0
0FFF00
03FC00
000000
000000
000000
000000
000000
000000
000000
000000
ENDCHAR

STARTCHAR CODE239
ENCODING 239
SWIDTH 451 0
DWIDTH 20 0
BBX 20 40 0 -6
BITMAP
000000
000000
000000
000000
01FC00
07FF00
0FFF80
1FFFC0
1F07C0
3E03E0
3C01E0
3C01E0
3C01E0
3C01E0
3C01E0
3C01E0
3C01E0
3C01E0
3C01E0
3C01E0
3C01E0
3C01E0
3C01E0
3C01E0
3C01E0
3C01E0
3C01E0
3C01E0
3C01E0
3C01E0
3C01E0
3C01E0
3C01E0
3C01E0
000000
000000
000000
000000
000000
000000
ENDCHAR

STARTCHAR CODE240
ENCODING 240
SWIDTH 451 0
DWIDTH 20 0
BBX 20 40 0 -6
BITMAP
000000
000000
000000
000000
000000
000000
000000
000000
000000
000000
000000
000000
3FFFE0
3FFFE0
3FFFE0
3FFFE0
000000
000000
3FFFE0
3FFFE0
3FFFE0
3FFFE0
000000
000000
3FFFE0
3FFFE0
3FFFE0
3FFFE0
000000
000000
000000
000000
000000
000000
000000
000000
000000
000000
000000
000000
ENDCHAR

STARTCHAR CODE241
ENCODING 241
SWIDTH 451 0
DWIDTH 20 0
BBX 20 40 0 -6
BITMAP
000000
000000
000000
000000
00F000
00F000
00F000
00F000
00F000
00F000
00F000
00F000
3FFFC0
3FFFC0
3FFFC0
3FFFC0
00F000
00F000
00F000
00F000
00F000
00F000
00F000
00F000
000000
000000
3FFFC0
3FFFC0
3FFFC0
3FFFC0
000000
000000
000000
000000
000000
000000
000000
000000
000000
000000
ENDCHAR

STARTCHAR CODE242
ENCODING 242
SWIDTH 451 0
DWIDTH 20 0
BBX 20 40 0 -6
BITMAP
000000
000000
000000
000000
000000
000000
000000
3C0000
3F0000
3FC000
1FF000
07FC00
01FF00
007FC0
001FE0
001FE0
007FC0
01FF00
07FC00
1FF000
3FC000
3F0000
3C0000
000000
000000
000000
3FFFC0
3FFFC0
3FFFC0
3FFFC0
000000
000000
000000
000000
000000
000000
000000
000000
000000
000000
ENDCHAR

STARTCHAR CODE243
ENCODING 243
SWIDTH 451 0
DWIDTH 20 0
BBX 20 40 0 -6
BITMAP
000000
000000
000000
000000
000000
000000
000000
0003C0
000FC0
003FC0
00FF80
03FE00
0FF800
3FE000
7F8000
7F8000
3FE000
0FF800
03FE00
00FF80
003FC0
000FC0
0003C0
000000
000000
000000
3FFFC0
3FFFC0
3FFFC0
3FFFC0
000000
000000
000000
000000
000000
000000
000000
000000
000000
000000
ENDCHAR

STARTCHAR CODE244
ENCODING 244
SWIDTH 451 0
DWIDTH 20 0
BBX 20 40 0 -6
BITMAP
000000
000000
000000
000000
000000
003800
007C00
00FC00
00FC00
00FC00
00F800
00C000
00C000
00C000
00E000
00E000
00E000
00E000
00E000
00E000
00E000
00E000
00E000
00E000
007000
007000
007000
007000
007000
007000
007000
007000
007800
007800
007800
007800
007800
007800
007800
007800
ENDCHAR

STARTCHAR CODE245
ENCODING 245
SWIDTH 451 0
DWIDTH 20 0
BBX 20 40 0 -6
BITMAP
007800
007800
007800
007800
007800
007800
007800
003800
003800
003800
003800
003800
003800
003800
003800
001C00
001C00
001C00
001C00
001C00
001C00
001C00
001C00
001C00
001C00
000C00
000C00
000C00
007C00
00FC00
00FC00
00FC00
00F800
007000
000000
000000
000000
000000
000000
000000
ENDCHAR

STARTCHAR CODE246
ENCODING 246
SWIDTH 451 0
DWIDTH 20 0
BBX 20 40 0 -6
BITMAP
000000
000000
000000
000000
000000
000000
000000
00F000
01F800
01F800
01F800
00F000
000000
000000
000000
000000
000000
3FFFC0
3FFFC0
3FFFC0
3FFFC0
000000
000000
000000
000000
000000
00F000
01F800
01F800
01F800
00F000
000000
000000
000000
000000
000000
000000
000000
000000
000000
ENDCHAR

STARTCHAR CODE247
ENCODING 247
SWIDTH 451 0
DWIDTH 20 0
BBX 20 40 0 -6
BITMAP
000000
000000
000000
000000
000000
000000
000000
000000
000000
000000
078000
1FC060
3FE0E0
3FF1E0
78FFC0
707FC0
603F80
001E00
078000
1FC060
3FE0E0
3FF1E0
78FFC0
707FC0
603F80
001E00
000000
000000
000000
000000
000000
000000
000000
000000
000000
000000
000000
000000
000000
000000
ENDCHAR

STARTCHAR CODE248
ENCODING 248
SWIDTH 451 0
DWIDTH 20 0
BBX 20 40 0 -6
BITMAP
000000
00F000
03FC00
07FE00
07FE00
0F9F00
0F0F00
0F9F00
07FE00
07FE00
03FC00
00F000
000000
000000
000000
000000
000000
000000
000000
000000
000000
000000
000000
000000
000000
000000
000000
000000
000000
000000
000000
000000
000000
000000
000000
000000
000000
000000
000000
000000
ENDCHAR

STARTCHAR CODE249
ENCODING 249
SWIDTH 451 0
DWIDTH 20 0
BBX 20 40 0 -6
BITMAP
000000
000000
000000
000000
000000
000000
000000
000000
000000
000000
000000
000000
000000
000000
00F000
03FC00
03FC00
07FE00
07FE00
07FE00
07FE00
03FC00
03FC00
00F000
000000
000000
000000
000000
000000
000000
000000
000000
000000
000000
000000
000000
000000
000000
000000
000000
ENDCHAR

STARTCHAR CODE250
ENCODING 250
SWIDTH 451 0
DWIDTH 20 0
BBX 20 40 0 -6
BITMAP
000000
000000
000000
000000
000000
000000
000000
000000
000000
000000
000000
000000
000000
000000
000000
00F000
01F800
03FC00
03FC00
03FC00
03FC00
01F800
00F000
000000
000000
000000
000000
000000
000000
000000
000000
000000
000000
000000
000000
000000
000000
000000
000000
000000
ENDCHAR

STARTCHAR CODE251
ENCODING 251
SWIDTH 451 0
DWIDTH 20 0
BBX 20 40 0 -6
BITMAP
001FF0
001FF0
003FF0
003800
003800
003800
003800
007800
007000
007000
007000
007000
007000
00F000
00E000
00E000
00E000
00E000
01E000
01C000
31C000
31C000
79C000
7BC000
7B8000
FF8000
FF8000
FF8000
DF8000
CF0000
0F0000
0F0000
070000
060000
060000
000000
000000
000000
000000
000000
ENDCHAR

STARTCHAR CODE252
ENCODING 252
SWIDTH 451 0
DWIDTH 20 0
BBX 20 40 0 -6
BITMAP
000000
000000
0F7C00
0FFE00
0FFE00
0FFF00
0F9F00
0F0F00
0F0F00
0F0F00
0F0F00
0F0F00
0F0F00
0F0F00
0F0F00
0F0F00
0F0F00
000000
000000
000000
000000
000000
000000
000000
000000
000000
000000
000000
000000
000000
000000
000000
000000
000000
000000
000000
000000
000000
000000
000000
ENDCHAR

STARTCHAR CODE253
ENCODING 253
SWIDTH 451 0
DWIDTH 20 0
BBX 20 40 0 -6
BITMAP
000000
000000
01FC00
03FE00
07FF00
07DF00
078F00
079F00
003E00
007E00
00FC00
01F800
03F000
03FF00
03FF00
03FF00
03FF00
000000
000000
000000
000000
000000
000000
000000
000000
000000
000000
000000
000000
000000
000000
000000
000000
000000
000000
000000
000000
000000
000000
000000
ENDCHAR

STARTCHAR CODE254
ENCODING 254
SWIDTH 451 0
DWIDTH 20 0
BBX 20 40 0 -6
BITMAP
000000
000000
000000
000000
000000
000000
07FE00
07FE00
07FE00
07FE00
07FE00
07FE00
07FE00
07FE00
07FE00
07FE00
07FE00
07FE00
07FE00
07FE00
07FE00
07FE00
07FE00
07FE00
07FE00
07FE00
07FE00
07FE00
07FE00
07FE00
07FE00
07FE00
000000
000000
000000
000000
000000
000000
000000
000000
ENDCHAR

STARTCHAR CODE255
ENCODING 255
SWIDTH 451 0
DWIDTH 20 0
BBX 20 40 0 -6
BITMAP
000000
000000
000000
000000
000000
000000
000000
000000
000000
000000
000000
000000
000000
000000
000000
000000
000000
000000
000000
000000
000000
000000
000000
000000
000000
000000
000000
000000
000000
000000
000000
000000
000000
000000
000000
000000
000000
000000
000000
000000
ENDCHAR
ENDFONT
